<svg width="178" height="178" viewBox="0 0 178 178" fill="none" xmlns="http://www.w3.org/2000/svg">
<rect width="178" height="178" fill="#F3F6FF"/>
<path d="M132.965 95.3523C137.917 95.3523 142.634 98.4181 144.639 103.017C146.29 106.554 146.054 110.799 144.285 114.337C141.337 119.879 134.145 122.826 128.013 120.232C122.589 117.992 119.169 111.742 120.23 105.965C121.291 100.187 126.598 95.4702 132.73 95.3523C132.73 95.3523 132.847 95.3523 132.965 95.3523ZM132.847 100.423C129.074 100.423 125.537 103.488 125.183 107.38C124.829 110.681 126.834 114.101 129.899 115.398C133.437 116.931 138.153 115.28 139.922 111.742C142.28 107.144 138.979 100.54 133.201 100.423C132.965 100.423 132.847 100.423 132.847 100.423Z" fill="#4DAAE1"/>
<path d="M88.9383 95.3523C94.952 95.3523 100.612 100.187 101.555 106.2C102.617 112.568 98.2541 119.407 91.7688 120.94C86.1088 122.237 79.8596 119.289 77.2655 113.983C75.6146 110.563 75.6146 106.318 77.2655 102.781C79.27 98.418 83.8685 95.4702 88.8209 95.3523H88.9383ZM88.8209 100.423C84.458 100.423 80.5668 104.667 81.1564 109.266C81.6281 112.922 85.1651 115.987 88.9383 115.987C92.3579 115.987 95.6599 113.393 96.4854 110.092C97.5466 105.611 94.0091 100.54 88.8209 100.423C88.9388 100.423 88.9388 100.423 88.8209 100.423Z" fill="#4DAAE1"/>
<path d="M88.9382 43C94.9518 43 100.612 47.7167 101.555 53.8483C102.617 60.2157 98.2537 67.1726 91.5325 68.5876C90.7071 68.8235 89.764 68.8234 88.8207 68.9413C82.6891 68.9413 76.7929 64.1069 75.9675 57.8574C75.1421 52.4333 78.3261 46.5376 83.2785 44.2972C85.1651 43.3539 87.0515 43 88.9382 43ZM88.8207 48.0704C84.4579 48.0704 80.5667 52.1974 81.1562 56.914C81.6279 60.5694 85.1649 63.6351 88.9382 63.6351C92.5935 63.6351 96.131 60.6873 96.6026 56.914C97.1922 52.6691 93.6552 48.0704 88.8207 48.0704C88.9386 48.0704 88.9386 48.0704 88.8207 48.0704Z" fill="#4DAAE1"/>
<path d="M45.0299 95.3523C49.9823 95.3523 54.6989 98.4181 56.8214 103.135C59.0618 108.087 57.6475 114.454 53.4026 118.11C49.8651 121.176 44.4406 122.119 39.9598 120.232C33.5924 117.638 30.1731 109.502 33.121 103.017C35.1255 98.536 39.8426 95.4702 44.795 95.3523C44.9129 95.3523 45.0299 95.3523 45.0299 95.3523ZM44.9125 100.423C41.375 100.423 38.0729 103.017 37.3654 106.554C36.1863 111.86 41.7288 117.992 47.8603 115.516C52.5769 113.511 54.464 106.318 50.1012 102.427C48.6862 101.13 46.7991 100.423 44.9125 100.423Z" fill="#4DAAE1"/>
<path d="M132.964 115.869C141.808 115.987 150.062 122.59 151.713 131.552C151.831 131.906 151.831 132.259 151.831 132.259C151.831 132.849 151.831 132.967 151.831 133.203C151.595 134.264 150.77 135.089 149.708 135.207C149.472 135.207 149.473 135.207 149.355 135.207H116.456C115.866 135.207 115.749 135.089 115.396 134.972C113.391 134.028 113.981 130.844 115.042 128.132C117.754 121.058 124.947 115.987 132.729 115.869C132.729 115.869 132.846 115.869 132.964 115.869ZM132.729 120.94C127.069 120.94 121.762 124.713 119.64 130.019H145.935C143.93 124.713 138.507 120.94 132.729 120.94Z" fill="#4DAAE1"/>
<path d="M89.0568 115.869C98.0184 115.987 106.508 122.826 107.923 132.142C107.923 132.142 108.041 133.792 107.098 134.5C106.744 134.854 106.272 135.09 105.8 135.09C105.564 135.09 105.564 135.09 105.446 135.09H72.5488C71.9592 135.09 71.8408 134.972 71.4871 134.854C69.1288 133.793 70.1895 129.901 71.6045 126.835C74.6703 120.35 81.3921 115.869 88.8208 115.751C88.8208 115.869 88.9389 115.869 89.0568 115.869ZM88.8208 120.94C83.1609 120.94 77.7361 124.713 75.7315 130.019H102.027C100.023 124.831 94.7165 120.94 88.8208 120.94Z" fill="#4DAAE1"/>
<path d="M89.0568 63.5176C98.1363 63.6355 106.508 70.7104 107.923 79.7899C107.923 79.7899 107.804 82.5019 105.8 82.8557C105.564 82.8557 105.564 82.8557 105.446 82.8557H72.5488C71.9592 82.8557 71.8408 82.7378 71.4871 82.6199C69.1288 81.5586 70.1895 77.6674 71.6045 74.6016C74.6703 67.9984 81.6275 63.6355 88.9382 63.5176C88.8203 63.5176 88.9389 63.5176 89.0568 63.5176ZM88.8208 68.588C83.1609 68.588 77.7361 72.3612 75.7315 77.6674H102.027C100.023 72.3612 94.5986 68.588 88.8208 68.588Z" fill="#4DAAE1"/>
<path d="M45.0295 115.869C54.109 115.987 62.4809 123.062 63.8959 132.142C63.8959 132.142 63.7782 134.854 61.7737 135.207C61.5379 135.207 61.5381 135.207 61.4202 135.207H28.5214C27.9319 135.207 27.8147 135.089 27.4609 134.972C26.5176 134.5 25.8099 133.557 26.0457 132.259C26.0457 132.142 26.282 130.962 26.5178 130.137C28.6403 122.119 36.3043 115.987 44.9121 115.869C44.7942 115.869 45.0295 115.869 45.0295 115.869ZM44.9121 120.94C39.2522 120.94 33.8285 124.713 31.824 130.019H58.1188C56.1142 124.713 50.6899 120.94 44.9121 120.94Z" fill="#4DAAE1"/>
</svg>
