<svg width="178" height="178" viewBox="0 0 178 178" fill="none" xmlns="http://www.w3.org/2000/svg">
<rect width="178" height="178" fill="#F3F6FF"/>
<path d="M130.52 42C131.767 42.2881 132.656 43.1523 132.834 44.5927V110.275C132.834 111.715 131.768 112.867 130.343 112.867H47.6901C46.265 112.867 45.1956 111.715 45.1956 110.275V44.5927C45.1956 43.1523 46.265 42 47.6901 42H130.343C130.343 42 130.342 42 130.52 42ZM50.0037 47.1854V107.682H127.671V47.1854H50.0037Z" fill="#4DAAE1"/>
<path d="M102.756 53.504C103.693 53.6081 103.902 53.8166 104.527 54.2332L110.775 60.4813C111.191 60.8979 111.192 61.1062 111.296 61.2103C111.608 62.1476 111.504 63.2931 110.775 64.0221L80.3674 94.4299C80.055 94.7423 79.6382 94.9504 79.2216 95.1587L70.995 97.3456C70.3702 97.5539 70.2661 97.4497 69.8495 97.4497C68.5999 97.2415 67.7666 95.9915 67.7666 94.7418C67.7666 94.5336 67.7668 94.5339 67.7668 94.3256L69.8495 85.9948C70.1619 85.0575 70.1617 85.2655 70.4741 84.7448L100.882 54.3371C101.194 54.0247 101.715 53.7126 102.236 53.6085C102.548 53.5044 102.756 53.504 102.756 53.504ZM74.5358 87.7652L73.7025 91.3056L77.1392 90.3686L105.256 62.2518L102.652 59.6484C93.2803 69.0207 83.908 78.3929 74.5358 87.7652Z" fill="#4DAAE1"/>
<path d="M75.6134 120.582C76.2521 120.582 76.4106 120.745 76.7299 120.909C78.6462 122.054 78.1659 125.654 75.4512 125.654H47.5063C45.59 125.654 44.1541 123.036 45.5913 121.4C45.9107 120.909 46.5494 120.582 47.1881 120.582C47.3478 120.582 47.3466 120.582 47.5063 120.582H75.6134C75.4537 120.582 75.6134 120.582 75.6134 120.582Z" fill="#4DAAE1"/>
<path d="M130.599 130.795C131.071 130.795 131.069 130.795 131.069 130.959C132.956 131.613 133.436 134.395 131.548 135.54C131.076 135.867 130.601 135.867 130.129 135.867H47.5539C45.1946 135.704 44.2491 133.086 45.6647 131.45C46.1365 131.122 46.6121 130.795 47.0839 130.795H47.5539H130.599C130.127 130.795 130.599 130.795 130.599 130.795Z" fill="#4DAAE1"/>
</svg>
