<svg width="178" height="178" viewBox="0 0 178 178" fill="none" xmlns="http://www.w3.org/2000/svg">
<rect width="178" height="178" fill="#F3F6FF"/>
<path d="M126.675 57.7845C127.948 58.1185 128.904 59.1202 128.904 60.4559V136.592C128.904 137.928 127.79 138.929 126.358 139.263H52.5063C51.0738 139.263 49.9603 138.262 49.9603 136.592V60.4559C49.9603 59.1202 51.0738 58.1185 52.5063 57.7845H126.358C126.517 57.7845 126.675 57.7845 126.675 57.7845ZM55.2123 62.7935V133.921H123.97V62.7935H55.2123Z" fill="#4DAAE1"/>
<path d="M123.432 39C130.598 39 136.99 45.3096 136.99 52.4605V137.429C136.796 138.691 136.214 139.533 135.246 139.953C135.052 139.953 134.664 139.953 134.471 139.953H44.6036C43.4415 139.953 42.4727 139.112 42.279 138.271C42.279 137.85 42.2798 137.85 42.0861 137.429C42.0861 109.246 41.8924 80.6433 42.0861 52.4605C42.0861 45.3096 48.2839 39 55.6438 39C78.3045 39 100.772 39 123.432 39ZM55.8367 44.4682C51.382 44.4682 47.5076 48.254 47.314 52.881V53.3016V134.905H132.148C132.148 107.564 132.342 79.802 132.148 52.4605C132.148 47.8335 128.274 44.0477 123.625 44.0477C100.771 44.0477 78.3037 44.4682 55.8367 44.4682Z" fill="#4DAAE1"/>
<path d="M117.529 39.1289C119.085 39.1289 120.044 40.867 119.804 42.6049C119.445 46.9497 115.373 51.2944 110.464 51.2944C96.4561 51.2944 82.4483 51.2944 68.4401 51.2944C63.5312 51.2944 59.1014 46.9499 59.1014 41.7362C59.1014 41.7362 59.6996 39.1289 61.6153 39.1289H117.17C117.409 39.1289 117.529 39.1289 117.529 39.1289ZM65.2071 44.3429C66.0452 45.2119 67.2423 46.081 68.5593 46.081C82.5676 46.081 96.5766 46.5154 110.585 46.081C111.902 46.081 113.099 45.2119 113.937 44.3429H65.2071Z" fill="#4DAAE1"/>
<path d="M119.492 65.7214C120.774 65.894 121.801 66.9297 121.801 68.3106V107.665C121.801 109.046 120.647 110.082 119.236 110.254H59.7277C58.317 110.254 57.291 109.046 57.1627 107.665V68.3106C57.1627 66.9297 58.317 65.894 59.7277 65.7214H119.236C119.365 65.7214 119.492 65.7214 119.492 65.7214ZM62.2927 70.8997V105.076H116.671V70.8997H62.2927Z" fill="#4DAAE1"/>
<path d="M80.0675 114.498C82.022 114.615 83.2867 117.207 81.792 118.739C81.3321 119.21 80.758 119.445 80.1831 119.563C80.0681 119.563 80.0679 119.563 79.9529 119.563H59.833C59.2581 119.563 59.0282 119.445 58.6833 119.328C56.7288 118.385 56.8435 114.615 59.6028 114.498H59.7185H79.8384C79.9534 114.498 79.9525 114.498 80.0675 114.498Z" fill="#4DAAE1"/>
<path d="M119.534 121.85C121.233 122.086 122.251 123.735 121.571 125.266C121.232 126.091 120.554 126.798 119.534 126.916C119.195 126.916 119.196 126.916 119.196 126.916H59.7433C59.4035 126.916 59.3996 126.916 59.0598 126.916C57.0214 126.562 56.3446 123.146 58.383 122.086C58.7227 121.85 59.0638 121.85 59.7433 121.85H119.534Z" fill="#4DAAE1"/>
</svg>
