<svg width="178" height="178" viewBox="0 0 178 178" fill="none" xmlns="http://www.w3.org/2000/svg">
<rect width="178" height="178" fill="#F3F6FF"/>
<path d="M124.625 50.626C125.828 50.8665 126.911 51.8284 126.911 53.1512V124.338C126.79 125.66 125.708 126.863 124.385 126.863H53.1987C51.876 126.742 50.6734 125.66 50.6734 124.338V53.2714C50.7936 51.9487 51.876 50.7462 53.1987 50.7462H124.385C124.506 50.626 124.625 50.626 124.625 50.626ZM55.724 55.7966V121.933H121.86V55.7966H55.724Z" fill="#4DAAE1"/>
<path d="M100.989 64.2827C107.296 64.3569 113.009 69.6991 113.306 76.08C113.306 76.2284 113.306 76.3767 113.306 76.5251C113.38 84.6868 113.306 92.8484 113.306 100.936C113.232 107.317 107.741 113.253 100.915 113.327C92.8277 113.327 84.6662 113.327 76.5787 113.327C70.1978 113.253 64.2619 107.836 64.1877 100.936C64.1877 92.8484 64.1877 84.6869 64.1877 76.5994C64.2619 70.1443 69.7526 64.2827 76.5787 64.2085C84.7404 64.2827 92.8277 64.2827 100.989 64.2827ZM76.6526 69.4023C72.8686 69.4023 69.3814 72.5928 69.3072 76.6736C69.3072 84.761 69.233 92.9226 69.3072 101.01C69.3814 104.72 72.572 108.133 76.5044 108.207C84.6661 108.281 92.7535 108.281 100.915 108.207C104.699 108.133 108.038 104.868 108.112 101.01C108.187 92.8484 108.187 84.7611 108.112 76.5994C108.038 72.8154 104.848 69.4765 100.915 69.4023C92.9019 69.3281 84.8143 69.4023 76.6526 69.4023Z" fill="#4DAAE1"/>
<path d="M69.913 38C70.2737 38 70.3941 38.1202 70.6346 38.1202C71.4763 38.481 72.1982 39.3227 72.1982 40.2847C72.1982 40.4049 72.1982 40.4049 72.1982 40.5252V53.1512C72.1982 54.8346 70.3941 56.1573 68.8309 55.5561C67.8689 55.1954 67.1476 54.2334 67.1476 53.1512V40.5252C67.1476 40.0442 67.1477 39.924 67.2679 39.6835C67.6287 38.7215 68.4703 38.1202 69.5525 38C69.793 38 69.7928 38 69.913 38Z" fill="#4DAAE1"/>
<path d="M88.9183 38C89.279 38 89.3994 38.1202 89.6399 38.1202C90.4816 38.481 91.2034 39.3227 91.2034 40.2847C91.2034 40.4049 91.2034 40.4049 91.2034 40.5252V53.1512C91.2034 55.4359 87.596 56.7586 86.3935 54.3536C86.2733 54.1131 86.1528 53.7524 86.1528 53.5119C86.1528 53.3916 86.1528 53.2714 86.1528 53.1512V40.5252C86.1528 40.0442 86.1529 39.924 86.2732 39.6835C86.6339 38.7215 87.4755 38.1202 88.5577 38C88.7982 38 88.9183 38 88.9183 38Z" fill="#4DAAE1"/>
<path d="M108.044 38C108.405 38 108.525 38.1202 108.766 38.1202C109.607 38.481 110.329 39.3227 110.329 40.2847C110.329 40.4049 110.329 40.4049 110.329 40.5252V53.1512C110.329 55.0751 107.684 56.5181 106 55.0751C105.519 54.5941 105.158 53.8726 105.158 53.1512V40.5252C105.158 40.0442 105.158 39.924 105.278 39.6835C105.639 38.7215 106.481 38.1202 107.563 38C107.924 38 107.924 38 108.044 38Z" fill="#4DAAE1"/>
<path d="M69.9129 121.892C70.2736 121.892 70.394 122.012 70.6345 122.012C71.4762 122.373 72.198 123.214 72.198 124.176C72.198 124.297 72.198 124.297 72.198 124.417V137.043C72.198 139.328 68.5906 140.65 67.3882 138.245C67.2679 138.005 67.1474 137.644 67.1474 137.404C67.1474 137.283 67.1474 137.163 67.1474 137.043V124.417C67.1474 124.056 67.1475 123.816 67.2678 123.575C67.6285 122.613 68.4702 121.892 69.5524 121.771C69.7929 121.892 69.7926 121.892 69.9129 121.892Z" fill="#4DAAE1"/>
<path d="M88.9181 121.892C89.3991 121.892 89.5196 122.012 89.7601 122.132C90.6018 122.493 91.2028 123.335 91.3231 124.297C91.3231 124.417 91.3231 124.417 91.3231 124.537V137.163C91.3231 139.087 88.6781 140.53 86.9946 139.087C86.5137 138.606 86.1527 137.884 86.1527 137.163V124.537C86.1527 124.056 86.1528 123.936 86.273 123.695C86.6338 122.733 87.4754 122.132 88.5576 122.012C88.7981 121.892 88.9181 121.892 88.9181 121.892Z" fill="#4DAAE1"/>
<path d="M108.044 121.892C108.405 121.892 108.525 122.012 108.765 122.012C109.607 122.373 110.328 123.214 110.328 124.176C110.328 124.297 110.328 124.297 110.328 124.417V137.043C110.328 138.967 107.683 140.41 106 138.967C105.519 138.486 105.158 137.764 105.158 137.043V124.417C105.158 123.936 105.158 123.816 105.278 123.575C105.639 122.613 106.481 122.012 107.563 121.892C107.924 121.892 107.924 121.892 108.044 121.892Z" fill="#4DAAE1"/>
<path d="M137.073 67.1582C138.756 67.2785 139.958 69.082 139.357 70.6453C138.996 71.6072 138.034 72.2082 136.952 72.2082H124.326C122.763 72.2082 121.561 70.6449 121.801 69.0817C122.042 67.8792 123.124 67.0378 124.326 67.0378L137.073 67.1582Z" fill="#4DAAE1"/>
<path d="M137.073 86.2834C138.636 86.4036 139.959 88.0874 139.357 89.6506C138.997 90.6126 138.035 91.334 136.952 91.334H124.326C122.763 91.334 121.561 89.7706 121.801 88.2074C122.042 87.005 123.124 86.1636 124.326 86.1636L137.073 86.2834Z" fill="#4DAAE1"/>
<path d="M137.073 105.409C139.237 105.529 140.439 109.017 138.155 110.219C137.914 110.339 137.553 110.46 137.313 110.46C137.193 110.46 137.072 110.46 136.952 110.46H124.326C122.763 110.46 121.561 108.896 121.801 107.333C122.042 106.131 123.124 105.289 124.326 105.289L137.073 105.409Z" fill="#4DAAE1"/>
<path d="M53.3021 67.1582C55.226 67.2785 56.4285 69.9239 55.1058 71.3669C54.6248 71.8478 53.9035 72.2082 53.182 72.2082H40.556C38.9928 72.2082 37.7902 70.6449 38.0307 69.0817C38.2712 67.8792 39.3536 67.0378 40.556 67.0378L53.3021 67.1582C53.1818 67.1582 53.1818 67.1582 53.3021 67.1582Z" fill="#4DAAE1"/>
<path d="M53.301 86.2834C54.8642 86.4036 56.0667 87.9669 55.7059 89.4099C55.4654 90.4921 54.3834 91.334 53.1809 91.334H40.555C38.631 91.334 37.1879 88.6884 38.6309 87.005C39.1119 86.524 39.8335 86.1636 40.555 86.1636L53.301 86.2834C53.1807 86.2834 53.1807 86.2834 53.301 86.2834Z" fill="#4DAAE1"/>
<path d="M53.3011 105.409C55.4656 105.529 56.6682 109.017 54.3835 110.219C54.143 110.339 53.782 110.46 53.5416 110.46C53.4213 110.46 53.3013 110.46 53.181 110.46H40.5551C38.6311 110.46 37.188 107.814 38.631 106.131C39.112 105.65 39.8336 105.289 40.5551 105.289L53.3011 105.409C53.1809 105.409 53.1809 105.409 53.3011 105.409Z" fill="#4DAAE1"/>
</svg>
