<svg width="178" height="178" viewBox="0 0 178 178" fill="none" xmlns="http://www.w3.org/2000/svg">
<rect width="178" height="178" fill="#F3F6FF"/>
<path d="M160.55 44C161.305 44.4418 161.908 44.8836 162.21 45.62C162.361 45.9145 162.362 46.209 162.362 46.3563V131.479C162.211 132.068 162.21 132.51 161.908 132.951C161.455 133.54 160.701 133.835 159.795 133.982H17.567C16.9631 133.835 16.5101 133.835 16.0572 133.54C15.4532 133.099 15.151 132.215 15 131.479V46.5036C15 45.9145 15.1507 45.4727 15.4527 45.0309C15.9056 44.4418 16.6611 44.1473 17.567 44H159.795C159.946 44 160.248 44 160.55 44ZM20.1341 49.0072V128.975H157.228V49.0072H20.1341Z" fill="#4DAAE1"/>
<path d="M143.731 53.3212C146.7 53.3748 149.414 56.1079 149.329 59.1948C149.244 62.0351 146.7 64.5753 143.731 64.6396C119.139 64.8004 94.5464 64.6396 69.9538 64.6396C66.9858 64.6182 64.188 61.9172 64.2728 58.8518C64.3576 55.9793 66.9013 53.3855 69.8693 53.3319C94.5467 53.1604 119.139 53.1604 143.731 53.3212ZM70.0391 58.4445C69.5303 58.4445 69.2759 59.4949 70.0391 59.5056C94.6317 59.6664 119.139 59.5056 143.731 59.5056C144.24 59.5056 144.495 58.4552 143.731 58.4445C119.139 58.2837 94.5469 58.4445 70.0391 58.4445Z" fill="#4DAAE1"/>
<path d="M32.4554 53.9774C32.7499 53.9774 32.7511 53.9774 32.8984 53.9774C34.9601 54.2719 36.4323 56.481 35.9905 58.3955C35.5486 61.0463 31.7199 62.3718 29.6581 60.31C27.5963 58.3955 28.6266 54.1246 32.0139 53.8301C32.3084 53.9773 32.3081 53.9774 32.4554 53.9774ZM32.3087 56.481C31.1305 56.481 30.3945 58.5427 31.8672 59.1318C33.0453 59.5736 34.665 57.5119 33.045 56.6282C32.7505 56.481 32.6032 56.481 32.3087 56.481Z" fill="#4DAAE1"/>
<path d="M42.6623 53.9774C42.9568 53.9774 42.9566 53.9774 43.1038 53.9774C45.1656 54.2719 46.6392 56.481 46.1974 58.3955C45.7556 61.0463 41.9268 62.3718 39.865 60.31C37.8032 58.3955 38.8336 54.1246 42.2208 53.8301C42.5153 53.9773 42.515 53.9774 42.6623 53.9774ZM42.5156 56.481C41.3374 56.481 40.6014 58.5427 42.0741 59.1318C43.2522 59.5736 44.8719 57.5119 43.252 56.6282C42.9574 56.481 42.8101 56.481 42.5156 56.481Z" fill="#4DAAE1"/>
<path d="M52.8672 53.9774C53.1617 53.9774 53.1614 53.9774 53.3087 53.9774C55.3705 54.2719 56.8441 56.481 56.4023 58.3955C55.9604 61.0463 52.1303 62.3718 50.0685 60.31C48.0067 58.3955 49.0384 54.1246 52.4257 53.8301C52.7202 53.9773 52.7199 53.9774 52.8672 53.9774ZM52.7205 56.481C51.5423 56.481 50.8048 58.5427 52.2775 59.1318C53.4557 59.5736 55.0768 57.5119 53.4569 56.6282C53.1623 56.481 53.015 56.481 52.7205 56.481Z" fill="#4DAAE1"/>
<path d="M51.6197 78.9636C55.9751 78.9636 60.128 81.6984 61.9512 85.7499C63.977 90.2065 62.6602 95.9799 58.9126 99.2211C55.7727 101.855 51.1129 102.665 47.1627 101.044C42.3009 99.1198 39.1612 93.549 40.2753 88.1808C41.2882 83.1164 45.9478 79.0649 51.316 78.9636C51.4173 78.9636 51.5184 78.9636 51.6197 78.9636ZM51.5178 84.028C48.4792 84.028 45.5427 86.5602 45.2388 89.8014C44.9349 93.2451 47.9728 96.7902 51.5178 96.7902C55.6706 96.7902 59.2159 92.0297 57.2914 87.8769C56.2785 85.7499 54.0506 84.2306 51.6197 84.1293C51.5184 84.028 51.5178 84.028 51.5178 84.028Z" fill="#4DAAE1"/>
<path d="M51.6195 96.5879C59.4187 96.6892 66.9137 102.665 68.1292 110.971C68.1292 110.971 68.0283 113.705 66.0025 114.009C65.8 114.009 65.7992 114.009 65.6979 114.009H37.4393C36.9329 114.009 36.7303 113.908 36.4264 113.807C35.3123 113.3 34.7046 111.984 34.9071 110.667C36.2239 102.969 43.3142 96.6892 51.3159 96.5879C51.4172 96.5879 51.5183 96.5879 51.6195 96.5879ZM51.4168 101.652C46.9601 101.652 42.6048 104.488 40.7816 108.641V108.742H62.3556C60.5324 104.59 56.2784 101.652 51.7204 101.652C51.6191 101.652 51.5181 101.652 51.4168 101.652Z" fill="#4DAAE1"/>
<path d="M159.994 76.135C161.274 76.2946 162.232 77.4115 162.232 78.6879V115.067C162.232 116.503 161.113 117.62 159.674 117.62H85.461C84.0215 117.62 82.9026 116.503 82.9026 115.067V78.6879C82.9026 77.2519 84.0215 76.135 85.461 76.135H159.674C159.834 76.135 159.994 76.135 159.994 76.135ZM88.021 81.2408V112.514H157.115V81.2408H88.021Z" fill="#4DAAE1"/>
</svg>
