<svg width="178" height="178" viewBox="0 0 178 178" fill="none" xmlns="http://www.w3.org/2000/svg">
<rect width="178" height="178" fill="#F3F6FF"/>
<path d="M108.451 44C109.041 44.118 109.159 44.118 109.395 44.236C110.221 44.7081 110.811 45.5342 110.811 46.5964V72.3242C110.811 73.5043 109.867 74.6845 108.687 74.8025C108.569 74.8025 108.451 74.8025 108.333 74.8025H69.6231C69.033 74.8025 68.9152 74.6845 68.6792 74.5665C67.735 74.2124 67.1451 73.2683 67.027 72.2061V46.4784C67.027 45.2982 67.9709 44.118 69.1511 44C69.2691 44 69.3869 44 69.5049 44H108.215C108.333 44 108.451 44 108.451 44ZM72.2197 49.0747V69.6098H105.736V49.0747H72.2197Z" fill="#4DAAE1"/>
<path d="M147.375 104.131C147.873 104.131 147.972 104.249 148.171 104.367C149.068 104.721 149.665 105.665 149.665 106.727V132.455C149.665 133.045 149.565 133.045 149.565 133.281C149.267 134.108 148.47 134.816 147.474 134.934C147.275 134.934 147.275 134.934 147.175 134.934H114.511C114.013 134.934 113.913 134.816 113.614 134.816C112.718 134.462 112.021 133.635 111.921 132.809C111.921 132.691 111.921 132.573 111.921 132.455V106.727C111.921 106.137 112.021 106.137 112.021 105.901C112.32 105.075 113.117 104.367 114.112 104.249C114.312 104.249 114.312 104.249 114.511 104.249H147.175C147.275 104.131 147.375 104.131 147.375 104.131ZM117.199 109.206V129.741H144.686V109.206H117.199Z" fill="#4DAAE1"/>
<path d="M105.414 104.131C105.912 104.131 106.011 104.249 106.211 104.367C107.107 104.721 107.704 105.665 107.704 106.727V132.455C107.704 133.045 107.605 133.045 107.605 133.281C107.306 134.108 106.51 134.816 105.514 134.934C105.315 134.934 105.314 134.934 105.115 134.934H72.4503C71.9524 134.934 71.8529 134.816 71.5541 134.816C70.6578 134.462 69.9605 133.635 69.8609 132.809C69.8609 132.691 69.8609 132.573 69.8609 132.455V106.727C69.8609 106.137 69.9606 106.137 69.9606 105.901C70.2594 105.075 71.0562 104.367 72.0521 104.249C72.2512 104.249 72.2511 104.249 72.4503 104.249H105.115C105.314 104.131 105.414 104.131 105.414 104.131ZM75.2386 109.206V129.741H102.725V109.206H75.2386Z" fill="#4DAAE1"/>
<path d="M63.4534 104.131C64.6485 104.249 65.6443 105.193 65.8435 106.373C65.8435 106.491 65.8435 106.609 65.8435 106.727V132.455C65.8435 133.045 65.7438 133.045 65.7438 133.281C65.445 134.108 64.6482 134.816 63.6523 134.934C63.4531 134.934 63.4532 134.934 63.2541 134.934H30.5894C30.0914 134.934 29.992 134.816 29.6932 134.816C28.7969 134.462 28.0996 133.635 28 132.809C28 132.691 28 132.573 28 132.455V106.727C28 106.137 28.0997 106.137 28.0997 105.901C28.3984 105.075 29.1953 104.367 30.1911 104.249C30.3903 104.249 30.3902 104.249 30.5894 104.249H63.2541C63.3537 104.131 63.4534 104.131 63.4534 104.131ZM33.278 109.206V129.741H60.7644V109.206H33.278Z" fill="#4DAAE1"/>
<path d="M89.2193 65.3991C90.3975 65.5318 91.4284 66.7256 91.4284 67.9194V106.651C91.4284 107.315 91.2808 107.447 91.1336 107.845C90.3972 109.304 88.1884 109.702 87.0103 108.508C86.5685 107.978 86.2739 107.447 86.2739 106.784V67.9194C86.2739 67.2561 86.4221 67.2561 86.4221 66.9908C87.0111 65.9297 88.0412 65.2665 89.2193 65.3991Z" fill="#4DAAE1"/>
<path d="M135.753 93.4816C136.475 93.8572 137.197 94.3268 137.404 95.1719C137.507 95.4536 137.507 95.7353 137.507 95.9231V105.501C137.404 106.253 137.404 106.534 136.888 107.192C135.96 108.318 133.897 108.318 132.969 107.192C132.453 106.534 132.453 106.346 132.35 105.501V98.5524H48.3999V105.501C48.2968 106.253 48.2967 106.534 47.781 107.192C46.8528 108.318 44.7904 108.318 43.8622 107.192C43.3465 106.534 43.3464 106.346 43.2433 105.501V95.9231C43.4496 94.7963 43.9649 93.8572 44.9962 93.4816C45.2025 93.3877 45.5122 93.3877 45.8216 93.3877H134.825C135.238 93.4816 135.547 93.4816 135.753 93.4816Z" fill="#4DAAE1"/>
</svg>
