<svg width="125" height="125" viewBox="0 0 125 125" fill="none" xmlns="http://www.w3.org/2000/svg">
<rect width="125" height="125" rx="8" fill="#41A9E0"/>
<path d="M97.7186 96H85.4671C84.1234 96 83.0958 94.9725 83.0958 93.6287V32.3713C83.0958 31.0275 84.1234 30 85.4671 30H97.7186C99.0623 30 100.09 31.0275 100.09 32.3713V93.6287C100.09 94.8934 99.0623 96 97.7186 96ZM87.8383 91.2575H95.3473V34.7425H87.8383V91.2575Z" fill="white"/>
<path d="M85.4671 91.2574H43.9701C33.5365 91.2574 25 82.7209 25 72.2874V52.2898C25 50.9461 26.0275 49.9185 27.3713 49.9185H85.4671C86.8108 49.9185 87.8383 50.9461 87.8383 52.2898V88.8862C87.8383 90.1508 86.8108 91.2574 85.4671 91.2574ZM29.7425 54.661V72.2874C29.7425 80.1125 36.1449 86.5149 43.9701 86.5149H83.0958V54.661H29.7425Z" fill="white"/>
<path d="M44.2072 66.5173H27.3713C26.0275 66.5173 25 65.4898 25 64.146C25 62.8023 26.0275 61.7748 27.3713 61.7748H44.2072C45.5509 61.7748 46.5784 62.8023 46.5784 64.146C46.5784 65.4898 45.4718 66.5173 44.2072 66.5173Z" fill="white"/>
<path d="M44.2072 80.3497H28.794C27.4503 80.3497 26.4228 79.3221 26.4228 77.9784C26.4228 76.6347 27.4503 75.6072 28.794 75.6072H44.2072C45.5509 75.6072 46.5785 76.6347 46.5785 77.9784C46.5785 79.3221 45.4719 80.3497 44.2072 80.3497Z" fill="white"/>
<path d="M85.4671 54.6611H64.9162C63.5725 54.6611 62.5449 53.6335 62.5449 52.2898C62.5449 43.7533 69.5006 36.7976 78.0371 36.7976H85.4671C86.8108 36.7976 87.8383 37.8252 87.8383 39.1689V52.2898C87.8383 53.6335 86.8108 54.6611 85.4671 54.6611ZM67.5246 49.9186H83.0958V41.5401H78.0371C72.8994 41.5401 68.6311 45.097 67.5246 49.9186Z" fill="white"/>
</svg>
