<svg width="125" height="125" viewBox="0 0 125 125" fill="none" xmlns="http://www.w3.org/2000/svg">
<rect width="125" height="125" rx="8" fill="#41A9E0"/>
<path d="M62.6807 43.4307C62.0725 43.4307 61.525 43.1265 61.16 42.6399L51.306 27.8589C50.9411 27.3114 50.8802 26.5815 51.2452 25.9732C51.6102 25.365 52.1576 25 52.8267 25H72.5347C73.2038 25 73.8121 25.365 74.1163 25.9732C74.4204 26.5815 74.4204 27.3114 74.0554 27.8589L64.2014 42.6399C63.8364 43.1265 63.289 43.4307 62.6807 43.4307ZM56.233 28.6496L62.6807 38.3212L69.1284 28.6496H56.233Z" fill="white"/>
<path d="M62.6807 100C62.6807 100 62.6199 100 62.6807 100C62.0725 100 61.525 99.6959 61.1601 99.2093L52.8267 87.1655C52.5834 86.8005 52.4618 86.3747 52.5226 85.9489L56.598 35.0973C56.6588 34.1241 57.4496 33.3942 58.4228 33.3942H66.9386C67.8511 33.3942 68.6418 34.1241 68.7635 35.0365L73.6905 85.8881C73.7513 86.3747 73.6296 86.8005 73.3255 87.1655L64.2014 99.2093C63.7756 99.7567 63.2282 100 62.6807 100ZM56.1722 85.6448L62.7416 95.073L69.9192 85.5839L65.2355 37.0438H60.126L56.1722 85.6448Z" fill="white"/>
</svg>
