<svg width="125" height="125" viewBox="0 0 125 125" fill="none" xmlns="http://www.w3.org/2000/svg">
<rect width="125" height="125" rx="8" fill="#41A9E0"/>
<path d="M70.1596 72.4925H36.3329C35.0109 72.4925 34 71.4816 34 70.1596V36.3329C34 35.0109 35.0109 34 36.3329 34H70.1596C71.4816 34 72.4925 35.0109 72.4925 36.3329V70.1596C72.4925 71.4038 71.4038 72.4925 70.1596 72.4925ZM38.6658 67.8267H67.8267V38.6658H38.6658V67.8267Z" fill="white"/>
<path d="M88.6671 90.7667H54.8404C53.5184 90.7667 52.5075 89.7558 52.5075 88.4338V54.6071C52.5075 53.2851 53.5184 52.2742 54.8404 52.2742H88.6671C89.9891 52.2742 91 53.2851 91 54.6071V88.4338C91 89.678 89.9891 90.7667 88.6671 90.7667ZM57.1733 86.101H86.3342V56.94H57.1733V86.101Z" fill="white"/>
</svg>
