<svg width="125" height="125" viewBox="0 0 125 125" fill="none" xmlns="http://www.w3.org/2000/svg">
<rect width="125" height="125" rx="8" fill="#41A9E0"/>
<path d="M29.0189 84.2141C28.4805 84.2141 28.0095 84.0122 27.6057 83.6084C26.7981 82.8008 26.7981 81.5222 27.6057 80.7819L44.228 64.1596C44.9683 63.4193 46.3142 63.4193 47.0545 64.1596L59.5044 76.6095L80.4337 55.6802C81.2413 54.8726 82.5199 54.8726 83.2602 55.6802C84.0678 56.4878 84.0678 57.7664 83.2602 58.5067L60.9849 80.9165C60.1774 81.7241 58.8987 81.7241 58.1585 80.9165L45.7085 68.4666L30.4321 83.6084C30.0284 84.0122 29.5573 84.2141 29.0189 84.2141Z" fill="white"/>
<path d="M89.9899 65.371C89.4515 65.371 88.9132 65.1691 88.5094 64.7653L74.5116 49.96C74.0405 49.4216 73.8387 48.6814 74.0405 48.0084C74.2424 47.3354 74.7808 46.797 75.4538 46.5951L96.0466 41.0768C96.7869 40.8749 97.5271 41.0768 98.0655 41.6152C98.6039 42.1536 98.7385 42.8938 98.5366 43.6341L91.9415 63.9577C91.7396 64.6307 91.1339 65.1691 90.461 65.3037C90.3264 65.3037 90.1918 65.371 89.9899 65.371ZM79.8281 49.6235L89.1823 59.4489L93.5566 45.9222L79.8281 49.6235Z" fill="white"/>
</svg>
