<svg width="541" height="338" viewBox="0 0 541 338" fill="none" xmlns="http://www.w3.org/2000/svg">
<path d="M60.5428 103.765H479.862" stroke="#DED8D5" stroke-width="1.9678" stroke-miterlimit="10"/>
<path d="M474.403 336.018H66.0016C62.9783 336.018 60.5428 333.579 60.5428 330.552V81.734C60.5428 78.7068 62.9783 76.2683 66.0016 76.2683H474.403C477.426 76.2683 479.862 78.7068 479.862 81.734V330.552C479.862 333.579 477.426 336.018 474.403 336.018Z" stroke="#DED8D5" stroke-width="1.9678" stroke-miterlimit="10"/>
<path d="M84.3095 94.095C86.4431 94.095 88.1727 92.3632 88.1727 90.227C88.1727 88.0907 86.4431 86.3589 84.3095 86.3589C82.176 86.3589 80.4464 88.0907 80.4464 90.227C80.4464 92.3632 82.176 94.095 84.3095 94.095Z" fill="#FFB1A5"/>
<path d="M99.1742 94.095C101.308 94.095 103.037 92.3632 103.037 90.227C103.037 88.0907 101.308 86.3589 99.1742 86.3589C97.0407 86.3589 95.3111 88.0907 95.3111 90.227C95.3111 92.3632 97.0407 94.095 99.1742 94.095Z" fill="#EAD254"/>
<path d="M114.123 94.095C116.256 94.095 117.986 92.3632 117.986 90.227C117.986 88.0907 116.256 86.3589 114.123 86.3589C111.989 86.3589 110.26 88.0907 110.26 90.227C110.26 92.3632 111.989 94.095 114.123 94.095Z" fill="#00857B"/>
<path d="M534.365 196.431H435.771C433 196.431 430.733 194.16 430.733 191.385V100.149C430.733 97.3745 433 95.1041 435.771 95.1041H534.365C537.137 95.1041 539.404 97.3745 539.404 100.149V191.385C539.404 194.16 537.137 196.431 534.365 196.431Z" fill="#EDEDED"/>
<path d="M534.365 196.431H435.771C433 196.431 430.733 194.16 430.733 191.385V100.149C430.733 97.3745 433 95.1041 435.771 95.1041H534.365C537.137 95.1041 539.404 97.3745 539.404 100.149V191.385C539.404 194.16 537.137 196.431 534.365 196.431Z" stroke="#DED8D5" stroke-width="1.9678" stroke-miterlimit="10"/>
<path d="M459.622 170.111H510.851C513.622 170.111 515.89 167.841 515.89 165.066V123.021C515.89 120.247 513.622 117.976 510.851 117.976H459.622C456.851 117.976 454.583 120.247 454.583 123.021V165.066C454.583 167.841 456.851 170.111 459.622 170.111Z" fill="#1F1F3E"/>
<path d="M499.261 152.705H475.243H470.96V133.701H499.261V138.41V152.705Z" stroke="white" stroke-width="1.6466" stroke-miterlimit="10" stroke-linecap="round" stroke-linejoin="round"/>
<path d="M470.96 133.701L485.069 144.884L499.261 133.701" stroke="white" stroke-width="1.6466" stroke-miterlimit="10" stroke-linecap="round" stroke-linejoin="round"/>
<path d="M100.602 272.867H6.62678C3.93938 272.867 1.83984 270.681 1.83984 268.074V186.004C1.83984 183.313 4.02336 181.211 6.62678 181.211H100.602C103.289 181.211 105.389 183.397 105.389 186.004V268.074C105.389 270.765 103.289 272.867 100.602 272.867Z" fill="#EDEDED"/>
<path d="M100.602 272.867H6.62678C3.93938 272.867 1.83984 270.681 1.83984 268.074V186.004C1.83984 183.313 4.02336 181.211 6.62678 181.211H100.602C103.289 181.211 105.389 183.397 105.389 186.004V268.074C105.389 270.765 103.289 272.867 100.602 272.867Z" stroke="#DED8D5" stroke-width="1.9678" stroke-miterlimit="10"/>
<path d="M77.759 255.209H29.0498C25.9425 255.209 23.507 252.686 23.507 249.659V202.485C23.507 199.374 26.0265 196.935 29.0498 196.935H77.759C80.8663 196.935 83.3017 199.458 83.3017 202.485V249.659C83.3017 252.686 80.8663 255.209 77.759 255.209Z" fill="#F75B19"/>
<path d="M41.731 214.594C35.1804 221.153 35.1804 232 41.731 238.559C48.2815 245.118 59.1151 245.118 65.6657 238.559C72.2162 232 72.2162 221.153 65.6657 214.594C59.1151 208.035 48.3655 208.035 41.731 214.594ZM65.6657 217.032H60.2909C59.787 215.351 59.0311 213.669 58.1913 211.903C61.2146 212.912 63.8181 214.678 65.6657 217.032ZM47.5257 225.609C47.5257 223.423 47.7776 221.237 48.3655 219.051H59.1991C59.703 221.237 60.0389 223.423 60.0389 225.609H47.5257ZM59.8709 227.628C59.703 229.814 59.3671 232 58.6952 234.187H48.7854C48.1975 232 47.7776 229.814 47.6097 227.628H59.8709ZM53.7403 211.314C54.5801 211.314 55.336 211.399 56.0918 211.483C57.0996 213.333 57.9394 215.182 58.5272 217.032H48.8694C49.4573 215.182 50.2971 213.333 51.3049 211.483C52.1447 211.399 52.9005 211.314 53.7403 211.314ZM49.2893 211.987C48.4495 213.669 47.6937 215.351 47.1898 217.117H41.815C43.7465 214.678 46.35 212.912 49.2893 211.987ZM40.4713 219.051H46.6859C46.182 221.237 45.8461 223.423 45.8461 225.609H38.5397C38.6237 223.255 39.3795 220.985 40.4713 219.051ZM40.4713 234.187C39.3795 232.252 38.6237 229.982 38.5397 227.628H45.8461C45.93 229.814 46.266 232 46.8538 234.187H40.4713ZM41.815 236.205H47.4417C48.0296 237.886 48.7014 239.652 49.5412 241.334C46.4339 240.409 43.7465 238.643 41.815 236.205ZM53.7403 241.923C53.0685 241.923 52.3966 241.839 51.7248 241.754C50.801 239.905 49.9611 237.97 49.3733 236.121H58.1073C57.4355 237.97 56.6797 239.905 55.7559 241.754C55.084 241.839 54.4122 241.923 53.7403 241.923ZM57.9394 241.334C58.7792 239.652 59.451 237.886 60.0389 236.205H65.6657C63.7341 238.643 61.0467 240.409 57.9394 241.334ZM67.0094 234.187H60.6268C61.2146 232 61.5506 229.814 61.6346 227.628H69.0249C68.8569 229.982 68.1851 232.252 67.0094 234.187ZM69.0249 225.609H61.7185C61.7185 223.423 61.3826 221.237 60.8787 219.051H67.0933C68.1851 220.985 68.8569 223.255 69.0249 225.609Z" fill="white"/>
<path d="M95.0591 52.219H9.90205C8.13845 52.219 6.71076 50.7895 6.71076 49.0236C6.71076 47.2578 8.13845 45.8282 9.90205 45.8282H95.0591C96.8227 45.8282 98.2504 47.2578 98.2504 49.0236C98.1665 50.7895 96.7388 52.219 95.0591 52.219Z" fill="#1F1F3E"/>
<path d="M537.809 260.506H496.49C494.726 260.506 493.299 259.077 493.299 257.311C493.299 255.545 494.726 254.115 496.49 254.115H537.809C539.572 254.115 541 255.545 541 257.311C541 259.077 539.572 260.506 537.809 260.506Z" fill="#56DFED"/>
<path d="M508.919 297.421H503.88C502.537 297.421 501.445 296.328 501.445 294.983V290.274C501.445 288.928 502.537 287.835 503.88 287.835H508.919C510.263 287.835 511.355 288.928 511.355 290.274V294.983C511.271 296.328 510.179 297.421 508.919 297.421Z" fill="#1F1F3E"/>
<path d="M30.1416 319.536H25.1027C23.759 319.536 22.6672 318.443 22.6672 317.098V312.389C22.6672 311.043 23.759 309.95 25.1027 309.95H30.1416C31.4853 309.95 32.577 311.043 32.577 312.389V317.098C32.577 318.443 31.4853 319.536 30.1416 319.536Z" fill="#FFB1A5"/>
<path d="M416.708 48.9395H332.642C331.215 48.9395 330.123 47.8464 330.123 46.4169V25.8993C330.123 24.4698 331.215 23.3766 332.642 23.3766H416.708C418.135 23.3766 419.227 24.4698 419.227 25.8993V46.4169C419.227 47.8464 418.051 48.9395 416.708 48.9395Z" fill="#F75B19"/>
<path d="M342.216 32.4582H402.011" stroke="white" stroke-width="1.1803" stroke-miterlimit="10"/>
<path d="M342.216 38.5966H366.571" stroke="white" stroke-width="1.1803" stroke-miterlimit="10"/>
<path d="M339.781 46.0805V56.003L352.378 46.0805H339.781Z" fill="#FFB1A5"/>
<path d="M210.198 50.4531H169.551C165.603 50.4531 162.412 47.2577 162.412 43.3056V5.46575C162.412 2.43857 164.848 0 167.871 0H210.281C213.305 0 215.74 2.43857 215.74 5.46575V45.0714C215.572 48.0145 213.221 50.4531 210.198 50.4531Z" fill="#56DFED"/>
<path d="M201.38 28.9264L198.356 25.8993C197.852 25.3106 197.096 24.9743 196.425 24.9743C195.753 24.9743 194.997 25.3106 194.493 25.8152L192.729 27.581C192.645 27.4969 192.477 27.4969 192.394 27.4128C192.142 27.3288 191.974 27.2447 191.89 27.1606C190.294 26.1515 188.782 24.8061 187.355 23.0402C186.683 22.1994 186.179 21.4426 185.927 20.8539C186.347 20.4335 186.767 20.0131 187.103 19.6767C187.271 19.5085 187.439 19.3404 187.607 19.1722C188.194 18.5836 188.53 17.9108 188.53 17.154C188.53 16.4813 188.194 15.7245 187.607 15.1359L186.095 13.6223C185.927 13.4542 185.759 13.286 185.591 13.1178C185.255 12.7814 184.919 12.4451 184.583 12.1087C184.079 11.6042 183.324 11.2679 182.652 11.2679C181.98 11.2679 181.308 11.5201 180.72 12.1087L178.789 14.0428C178.117 14.7155 177.613 15.6405 177.529 16.7336C177.445 18.3313 177.865 19.8449 178.201 20.8539C179.04 23.3766 180.384 25.5629 182.4 27.9174C184.835 30.7764 187.691 33.0468 191.05 34.7285C192.31 35.3172 193.989 35.9899 195.921 36.1581C196.005 36.1581 196.173 36.1581 196.341 36.1581C197.6 36.1581 198.692 35.6535 199.616 34.7285C199.616 34.7285 199.616 34.7286 199.7 34.6445C199.952 34.3081 200.288 33.9718 200.708 33.6354C200.96 33.3831 201.212 33.1309 201.38 32.9627C202.555 31.7014 202.555 30.1037 201.38 28.9264ZM200.204 31.7855C199.952 32.0377 199.784 32.2059 199.532 32.4582C199.112 32.7945 198.86 33.1309 198.44 33.5513C197.936 34.0558 197.264 34.3922 196.509 34.3922C196.425 34.3922 196.341 34.3922 196.257 34.3922C194.661 34.3081 193.149 33.6354 192.058 33.1309C188.95 31.6173 186.263 29.5151 183.995 26.8242C182.148 24.6379 180.888 22.4516 180.048 20.2653C179.544 19.004 179.292 17.9108 179.376 16.9018C179.46 16.3132 179.628 15.7245 180.132 15.3041L181.98 13.4542C182.148 13.286 182.4 13.0337 182.736 13.0337C183.072 13.0337 183.24 13.2019 183.491 13.4542C183.827 13.7905 184.163 14.1269 184.499 14.4632C184.667 14.6314 184.835 14.8837 185.003 14.9677L186.515 16.4813C186.683 16.6495 186.935 16.9859 186.935 17.2381C186.935 17.5745 186.683 17.8268 186.515 17.9949C186.347 18.1631 186.179 18.3313 186.011 18.4995C185.507 19.004 185.087 19.4244 184.667 19.8449C184.667 19.8449 184.667 19.8449 184.583 19.929C184.079 20.4335 184.163 20.938 184.247 21.2744V21.3585C184.667 22.3675 185.255 23.2084 186.011 24.3016C187.523 26.2356 189.118 27.6651 190.966 28.8424C191.218 29.0105 191.47 29.0946 191.638 29.2628C191.89 29.3469 192.058 29.431 192.142 29.5151L192.226 29.5992C192.729 29.8514 193.317 29.7673 193.737 29.3469L195.669 27.4128C195.837 27.2447 196.089 26.9924 196.425 26.9924C196.677 26.9924 196.929 27.2447 197.096 27.4128L200.12 30.44C200.624 30.6923 200.624 31.2809 200.204 31.7855Z" fill="white"/>
<mask id="mask0" mask-type="alpha" maskUnits="userSpaceOnUse" x="76" y="56" width="383" height="278">
<rect x="76" y="56" width="383" height="278" fill="#C4C4C4"/>
</mask>
<g mask="url(#mask0)">
<path d="M387.146 241.586L356.493 237.466L356.745 240.493L330.543 244.025C330.543 244.025 313.663 286.49 328.527 379.828H349.858L357.501 285.228H360.188L367.579 379.828H388.994C403.942 286.49 387.146 241.586 387.146 241.586Z" fill="#8E716C"/>
<path d="M347.759 285.144H370.014" stroke="#282828" stroke-width="1.2333" stroke-miterlimit="10" stroke-linecap="round" stroke-linejoin="round"/>
<path d="M405.118 196.767C402.515 192.563 387.734 192.731 386.978 192.647C383.031 192.142 389.498 223.928 397.812 251.677C399.407 256.975 405.202 259.749 410.325 257.563C410.409 257.563 410.409 257.479 410.493 257.479C414.524 255.797 416.792 251.509 416.036 247.136C412.089 226.282 408.142 201.644 405.118 196.767Z" fill="#FFB1A5"/>
<path d="M408.561 208.287L389.75 215.603L387.986 206.605L407.47 201.812L408.561 208.287Z" fill="#F3978E"/>
<path d="M412.173 226.114C412.173 226.114 403.271 238.055 403.691 237.55C404.11 236.961 410.661 218.21 410.661 218.21L412.173 226.114Z" fill="#F3978E"/>
<path d="M424.854 210.053L399.323 243.184C395.964 247.557 397.056 253.863 401.675 256.806C406.294 259.833 412.425 258.236 415.028 253.359L436.275 214.089L424.854 210.053Z" fill="#FFB1A5"/>
<path d="M444.756 211.711C446.538 206.187 443.511 200.262 437.994 198.478C432.477 196.693 426.559 199.725 424.777 205.249C422.995 210.773 426.023 216.698 431.54 218.482C437.057 220.267 442.974 217.235 444.756 211.711Z" fill="#FFB1A5"/>
<path d="M442.406 202.149C442.406 202.149 445.261 199.122 440.138 197.019C435.016 194.917 428.717 195.422 424.686 205.176L442.406 202.149Z" fill="#FFB1A5"/>
<path d="M447.697 181.211L458.362 185.836C458.95 186.088 459.202 186.761 458.866 187.433L444.757 213.753C444.422 214.342 443.666 214.678 443.078 214.426L432.412 209.801C431.824 209.549 431.572 208.876 431.908 208.203L446.017 181.883C446.353 181.295 447.109 180.958 447.697 181.211Z" fill="#372F5F"/>
<path d="M446.689 180.79L457.355 185.415C457.942 185.667 458.194 186.34 457.858 187.013L443.75 213.333C443.414 213.921 442.658 214.258 442.07 214.005L431.404 209.38C430.816 209.128 430.565 208.455 430.9 207.783L445.009 181.463C445.345 180.79 446.101 180.538 446.689 180.79Z" fill="#261B43"/>
<path d="M445.513 183.481L454.919 187.517L443.414 208.96L434.008 204.924L445.513 183.481Z" fill="#E6E6E6"/>
<path d="M454.919 187.517L434.008 204.924L445.513 183.481L454.919 187.517Z" fill="white"/>
<path d="M437.115 196.179C437.115 196.179 439.467 196.683 441.65 197.86C442.574 198.365 443.078 199.458 442.826 200.551C442.574 201.476 441.818 202.233 440.81 202.317L435.268 202.99C435.268 202.99 432.328 208.035 428.549 208.54L431.992 199.71L437.115 196.179Z" fill="#FFB1A5"/>
<path d="M366.151 155.059C365.563 155.059 405.538 160.609 412.173 206.353L391.429 209.549L387.23 244.025H329.283L317.778 180.286C317.778 180.286 330.627 161.87 354.477 155.059H366.151Z" fill="#7195F2"/>
<path d="M391.345 209.549L393.193 189.536" stroke="#282828" stroke-width="1.2333" stroke-miterlimit="10" stroke-linecap="round" stroke-linejoin="round"/>
<path d="M369.93 155.732V139.839H351.37V155.9C350.446 156.152 348.851 156.741 346.415 157.918L360.944 166.579L375.725 157.918C375.641 157.918 373.289 156.573 369.93 155.732Z" fill="#FFB1A5"/>
<path d="M351.202 141.773C351.202 141.773 354.561 150.687 363.464 149.846C371.61 149.173 370.35 136.812 370.35 136.812L351.202 141.773Z" fill="#282828"/>
<path d="M343.056 130.001C340.117 132.608 333.65 122.601 336.421 119.826C339.277 117.051 341.376 121.424 341.376 121.424L342.636 124.451L343.56 128.487L343.812 129.58L343.056 130.001Z" fill="#F3978E"/>
<path d="M337.765 123.358C337.765 123.358 339.949 122.349 341.964 125.544" stroke="#282828" stroke-width="0.9928" stroke-miterlimit="10" stroke-linecap="round" stroke-linejoin="round"/>
<path d="M377.488 129.665C380.176 132.524 387.482 123.106 384.963 120.078C382.359 117.051 379.924 121.256 379.924 121.256L378.412 124.115L377.152 128.067L376.817 129.076L377.488 129.665Z" fill="#F3978E"/>
<path d="M383.283 123.526C383.283 123.526 381.184 122.349 378.916 125.376" stroke="#282828" stroke-width="0.9928" stroke-miterlimit="10" stroke-linecap="round" stroke-linejoin="round"/>
<path d="M337.933 110.24C337.933 123.526 348.011 129.833 360.524 129.833C373.037 129.833 383.115 123.526 383.115 110.24C383.115 96.9541 373.037 87.9566 360.524 87.9566C348.011 87.9566 337.933 96.9541 337.933 110.24Z" fill="#282828"/>
<path d="M341.04 111.165C341.04 119.322 342.216 126.385 343.308 131.346C344.4 136.223 347.591 139.671 352.042 142.362L352.882 142.866C357.585 145.809 363.715 145.809 368.502 143.035C373.373 140.176 376.733 136.476 377.824 131.262C379.756 121.76 379.924 111.165 379.924 111.165C379.924 111.165 381.771 90.5633 360.776 90.9838C339.781 91.3201 341.04 111.165 341.04 111.165Z" fill="#FFB1A5"/>
<path d="M359.18 122.853V125.712C359.18 125.881 359.18 126.049 359.264 126.217C359.516 126.806 360.188 127.058 360.776 126.89L362.12 126.553" stroke="#282828" stroke-width="1.2316" stroke-miterlimit="10" stroke-linecap="round" stroke-linejoin="round"/>
<path d="M355.821 111.838L345.408 114.276C345.408 114.276 345.911 111.585 350.11 110.66C354.478 109.736 355.821 111.838 355.821 111.838Z" fill="#282828"/>
<path d="M365.143 111.838L375.221 114.276C375.221 114.276 374.801 111.585 370.686 110.66C366.487 109.736 365.143 111.838 365.143 111.838Z" fill="#282828"/>
<path d="M351.874 121.256C352.848 121.256 353.638 120.465 353.638 119.49C353.638 118.515 352.848 117.724 351.874 117.724C350.9 117.724 350.11 118.515 350.11 119.49C350.11 120.465 350.9 121.256 351.874 121.256Z" fill="#282828"/>
<path d="M368.586 121.256C369.56 121.256 370.35 120.465 370.35 119.49C370.35 118.515 369.56 117.724 368.586 117.724C367.612 117.724 366.823 118.515 366.823 119.49C366.823 120.465 367.612 121.256 368.586 121.256Z" fill="#282828"/>
<path d="M353.638 130.253H367.159C367.243 130.253 361.196 137.569 353.638 130.253Z" fill="white"/>
<path d="M351.202 127.646C355.33 127.646 358.677 124.296 358.677 120.162C358.677 116.029 355.33 112.679 351.202 112.679C347.074 112.679 343.728 116.029 343.728 120.162C343.728 124.296 347.074 127.646 351.202 127.646Z" stroke="#C98BD2" stroke-width="1.3423" stroke-miterlimit="10"/>
<path d="M369.51 127.646C373.638 127.646 376.984 124.296 376.984 120.162C376.984 116.029 373.638 112.679 369.51 112.679C365.382 112.679 362.036 116.029 362.036 120.162C362.036 124.296 365.382 127.646 369.51 127.646Z" stroke="#C98BD2" stroke-width="1.3423" stroke-miterlimit="10"/>
<path d="M358.677 120.162C358.677 120.162 360.44 118.481 362.12 120.162" stroke="#C98BD2" stroke-width="1.3423" stroke-miterlimit="10"/>
<path d="M343.644 120.163H341.292" stroke="#C98BD2" stroke-width="1.3423" stroke-miterlimit="10"/>
<path d="M376.984 120.163H379.42" stroke="#C98BD2" stroke-width="1.3423" stroke-miterlimit="10"/>
<path d="M379.672 117.976C379.672 117.976 371.274 106.624 373.205 95.1041C373.205 95.1041 379.42 98.2154 381.016 106.372C382.695 114.444 379.672 117.976 379.672 117.976Z" fill="#282828"/>
<path d="M341.04 118.733C341.04 118.733 350.782 105.867 348.851 94.3473C348.851 94.3473 342.132 98.2154 340.453 106.372C338.773 114.444 341.04 118.733 341.04 118.733Z" fill="#282828"/>
<path d="M378.916 99.6449C378.916 99.6449 368.166 111.417 338.689 109.399C338.689 109.399 343.224 92.0769 357.501 90.227C357.501 90.227 373.961 88.293 378.916 99.6449Z" fill="#282828"/>
<path d="M378.16 99.9812C385.952 99.9812 392.269 93.6564 392.269 85.8544C392.269 78.0523 385.952 71.7275 378.16 71.7275C370.368 71.7275 364.051 78.0523 364.051 85.8544C364.051 93.6564 370.368 99.9812 378.16 99.9812Z" fill="#282828"/>
<path d="M206.418 241.502L180.216 237.971L180.468 234.943L149.815 239.064C149.815 239.064 133.103 283.967 147.967 377.305H169.299L176.689 282.706H179.376L187.019 377.305H208.434C223.299 283.967 206.418 241.502 206.418 241.502Z" fill="#282828"/>
<path d="M204.319 113.856C200.792 109.651 197.936 104.774 195.501 97.9631C192.897 90.6474 184.415 93.5905 184.415 93.5905C184.415 93.5905 177.361 84.5089 166.695 87.6202C156.03 90.8156 152.334 98.3835 152.166 107.381C151.915 116.378 144.86 117.808 139.401 128.235C129.743 146.65 145.952 162.123 175.513 157.834V157.582C178.453 158.507 181.98 158.843 186.347 158.591C221.787 156.489 218.344 130.421 204.319 113.856Z" fill="#282828"/>
<path d="M192.729 127.478C195.669 130.085 202.135 120.078 199.364 117.303C196.593 114.529 194.409 118.901 194.409 118.901L193.149 121.928L192.226 125.965L191.974 127.058L192.729 127.478Z" fill="#F3978E"/>
<path d="M197.936 120.835C197.936 120.835 195.753 119.826 193.737 123.021" stroke="#282828" stroke-width="0.9928" stroke-miterlimit="10" stroke-linecap="round" stroke-linejoin="round"/>
<path d="M158.297 127.226C155.61 130.085 148.303 120.667 150.823 117.64C153.426 114.613 155.862 118.817 155.862 118.817L157.373 121.676L158.633 125.628L158.969 126.637L158.297 127.226Z" fill="#F3978E"/>
<path d="M152.502 121.003C152.502 121.003 154.602 119.826 156.869 122.853" stroke="#282828" stroke-width="0.9928" stroke-miterlimit="10" stroke-linecap="round" stroke-linejoin="round"/>
<path d="M197.852 107.717C197.852 121.003 187.775 127.31 175.261 127.31C162.748 127.31 152.67 121.003 152.67 107.717C152.67 94.4314 162.748 85.4339 175.261 85.4339C187.775 85.4339 197.852 94.4314 197.852 107.717Z" fill="#282828"/>
<path d="M184.415 137.401H165.855V161.534H184.415V137.401Z" fill="#FFB1A5"/>
<path d="M163.168 135.887C163.168 135.887 168.375 146.23 174.673 147.828C176.353 148.248 178.201 148.08 179.796 147.491C182.232 146.65 185.255 143.035 185.759 139.082L186.011 136.812C186.011 136.896 174.673 143.035 163.168 135.887Z" fill="#282828"/>
<path d="M194.745 108.642C194.745 116.799 193.569 123.862 192.478 128.824C191.386 133.701 188.194 137.148 183.743 139.839L182.904 140.344C178.201 143.287 172.07 143.287 167.283 140.512C162.412 137.653 159.053 133.953 157.961 128.74C156.03 119.238 155.862 108.642 155.862 108.642C155.862 108.642 154.014 88.0407 175.009 88.4611C196.005 88.8815 194.745 108.642 194.745 108.642Z" fill="#FFB1A5"/>
<path d="M173.834 121.508V123.19C173.834 123.358 173.834 123.526 173.918 123.694C174.17 124.283 174.841 124.535 175.429 124.367L176.773 124.031" stroke="#282828" stroke-width="1.2298" stroke-miterlimit="10" stroke-linecap="round" stroke-linejoin="round"/>
<path d="M178.201 110.324L189.37 112.931C189.37 112.931 188.866 110.072 184.331 108.979C179.796 107.886 178.201 110.324 178.201 110.324Z" fill="#282828"/>
<path d="M172.322 110.324L160.984 112.93C160.984 112.93 161.488 110.071 166.107 108.978C170.81 108.053 172.322 110.324 172.322 110.324Z" fill="#282828"/>
<path d="M166.527 119.069C167.501 119.069 168.291 118.279 168.291 117.303C168.291 116.328 167.501 115.538 166.527 115.538C165.553 115.538 164.764 116.328 164.764 117.303C164.764 118.279 165.553 119.069 166.527 119.069Z" fill="#282828"/>
<path d="M183.24 119.069C184.214 119.069 185.003 118.279 185.003 117.303C185.003 116.328 184.214 115.538 183.24 115.538C182.266 115.538 181.476 116.328 181.476 117.303C181.476 118.279 182.266 119.069 183.24 119.069Z" fill="#282828"/>
<path d="M167.115 127.31H182.568C182.568 127.31 181.476 131.514 174.505 131.514C169.131 131.514 167.115 127.31 167.115 127.31Z" fill="white"/>
<path d="M156.114 115.454C156.114 115.454 164.512 104.102 162.58 92.5815C162.58 92.5815 156.366 95.6927 154.77 103.849C153.09 111.922 156.114 115.454 156.114 115.454Z" fill="#282828"/>
<path d="M194.745 115.117C194.745 115.117 185.003 103.345 186.935 91.8246C186.935 91.8246 193.653 95.6927 195.333 103.849C196.929 111.922 194.745 115.117 194.745 115.117Z" fill="#282828"/>
<path d="M156.869 97.1222C156.869 97.1222 166.527 110.072 196.005 108.054C196.005 108.054 192.645 89.5543 178.369 87.7043C178.285 87.7884 161.824 85.7703 156.869 97.1222Z" fill="#282828"/>
<path d="M129.994 298.514C129.575 299.187 154.517 189.788 147.127 191.47C146.455 191.638 133.438 192.815 131.506 196.767C125.879 208.119 121.932 297.673 121.932 297.673L129.994 298.514Z" fill="#FFB1A5"/>
<path d="M121.933 297.673C121.933 297.673 117.902 316.341 133.103 318.443C134.11 318.611 135.034 318.023 135.37 317.014L135.454 316.846C135.79 315.752 135.286 314.659 134.278 314.239C131.759 313.146 127.98 310.287 129.827 303.98C129.827 303.98 132.011 303.728 133.271 307.848C133.607 308.941 134.782 309.446 135.79 308.941C136.462 308.605 136.798 307.848 136.714 307.175C136.378 304.316 134.866 297.337 129.324 295.487L121.933 297.673Z" fill="#FFB1A5"/>
<path d="M127.056 223.003C127.056 223.003 141.417 243.268 141.501 242.848C141.585 242.427 146.54 214.342 146.54 214.342L129.072 206.774L127.056 223.003Z" fill="#F3978E"/>
<path d="M166.947 157.498C167.535 157.498 131.423 158.17 124.789 203.831L145.532 207.026L149.731 241.502H207.678L219.184 177.763C219.184 177.763 211.037 163.973 187.187 157.161L166.947 157.498Z" fill="#00BBC7"/>
<path d="M149.311 163.048C149.311 163.048 154.434 169.859 175.345 169.859C196.089 169.859 201.38 162.711 201.38 162.711C201.38 162.711 189.118 155.9 174.925 153.63C175.009 153.63 162.328 155.9 149.311 163.048Z" fill="#FFB1A5"/>
<path d="M220.443 307.848V399H265.541L268.984 307.848H220.443Z" fill="#005683"/>
<path d="M318.198 307.848V399H273.1L269.656 307.848H318.198Z" fill="#005683"/>
<path d="M293.591 307.848H247.065V339.549H293.591V307.848Z" fill="#005683"/>
<path d="M346.667 228.3C349.439 259.161 346.499 281.697 347.339 338.54L320.465 339.634L316.434 233.262L346.667 228.3Z" fill="#FFB1A5"/>
<path d="M319.793 252.35C319.793 252.35 336.421 250.836 347.843 243.268L347.507 236.625L319.793 240.409V252.35Z" fill="#F3978E"/>
<path d="M293.087 157.161C293.087 157.161 345.995 170.447 355.569 237.634C355.569 237.634 329.703 248.902 303.753 244.025L309.547 221.573L293.087 157.161Z" fill="#1F1F3E"/>
<path d="M135.118 185.079L174.505 231.664L162.496 265.636C162.496 265.636 132.599 224.012 119.162 191.806L135.118 185.079Z" fill="#FFB1A5"/>
<path d="M136.378 186.761C136.378 186.761 122.521 194.581 119.078 191.722C112.947 186.761 107.824 168.682 107.824 168.682C107.824 168.682 133.691 158.927 133.439 159.264C133.187 159.684 136.378 186.761 136.378 186.761Z" fill="#FFB1A5"/>
<path d="M136.378 186.761C136.126 185.331 141.501 170.363 143.348 164.729C143.768 163.384 142.844 161.87 141.417 161.618C140.493 161.45 138.897 161.534 138.226 162.964L131.759 174.063L136.378 186.761Z" fill="#FFB1A5"/>
<path d="M135.958 170.531L131.507 148.332C131.255 146.819 129.743 145.809 128.316 146.146C127.056 146.398 126.216 147.491 126.384 148.837L128.316 165.318L135.958 170.531Z" fill="#FFB1A5"/>
<path d="M127.056 162.375L121.009 146.566C120.505 145.221 118.91 144.38 117.566 144.885C116.39 145.305 115.719 146.482 115.97 147.744L120.421 166.075L127.056 162.375Z" fill="#FFB1A5"/>
<path d="M120.589 167L112.947 151.443C112.275 150.014 110.512 149.341 109.084 149.93C107.74 150.518 107.152 152.032 107.74 153.462L113.871 168.177L120.589 167Z" fill="#FFB1A5"/>
<path d="M107.824 168.682L101.862 159.18C101.358 158.086 101.862 156.825 102.869 156.321C103.877 155.816 105.221 156.236 105.893 157.161L113.787 168.093L107.824 168.682Z" fill="#FFB1A5"/>
<path d="M134.698 168.85C134.698 168.85 125.712 167.925 124.789 179.949" stroke="#282828" stroke-width="1.5317" stroke-miterlimit="10" stroke-linecap="round" stroke-linejoin="round"/>
<path d="M154.434 249.743C154.434 249.743 161.824 275.39 176.605 272.026C191.386 268.579 214.397 237.046 214.397 237.046L209.274 183.145L167.871 234.187L154.434 249.743Z" fill="#FFB1A5"/>
<path d="M180.636 218.294C180.636 218.294 194.577 239.4 206.586 246.884L214.397 237.046L184.247 213.753L180.636 218.294Z" fill="#F3978E"/>
<path d="M241.858 155.984C241.858 155.984 200.792 165.234 178.956 212.996C178.956 212.996 192.142 232.925 213.389 241.839L227.582 224.432L241.858 155.984Z" fill="#1F1F3E"/>
<path d="M241.858 155.816C225.818 164.057 215.74 174.988 215.74 174.988L218.932 314.659H319.961L319.625 175.745C319.625 175.745 306.86 163.3 293.087 157.161C281.33 151.948 253.196 150.014 241.858 155.816Z" fill="#1F1F3E"/>
<path d="M289.644 223.844C281.918 223.844 275.619 217.537 275.619 209.801V195.758H303.753V209.801C303.669 217.537 297.37 223.844 289.644 223.844Z" stroke="#282828" stroke-width="1.3968" stroke-miterlimit="10" stroke-linecap="round" stroke-linejoin="round"/>
<path d="M319.793 244.613L321.053 198.869" stroke="#282828" stroke-width="1.3968" stroke-miterlimit="10" stroke-linecap="round" stroke-linejoin="round"/>
<path d="M217.252 236.961L215.068 197.356" stroke="#282828" stroke-width="1.3968" stroke-miterlimit="10" stroke-linecap="round" stroke-linejoin="round"/>
<path d="M243.034 104.858L238.835 84.0044C238.583 82.3227 237.911 79.7159 238.751 77.1933C240.095 73.157 244.966 65.2527 253.364 68.8685L255.212 77.1092C255.212 77.1092 246.477 78.875 243.034 90.227V104.858Z" fill="#282828"/>
<path d="M252.692 73.157C252.524 75.9319 250.089 87.8725 241.607 92.2451C241.607 92.2451 234.216 76.2683 252.692 73.157Z" fill="#282828"/>
<path d="M282.505 152.032V116.631H249.921V152.032L240.179 156.489C240.179 156.489 242.446 171.204 266.549 171.541C290.652 171.877 293.087 157.246 293.087 157.246L282.505 152.032Z" fill="#FFB1A5"/>
<path d="M253.364 68.8685C253.364 68.8685 259.327 53.0599 277.803 61.4687C288.972 66.5981 292.079 73.4093 293.423 78.2023C293.843 79.8 294.011 82.3227 293.927 83.8362L289.476 104.858L272.008 75.7638L255.128 77.1092L253.364 68.8685Z" fill="#282828"/>
<path d="M289.476 104.858C289.476 104.858 291.659 101.327 296.194 103.093C300.729 104.774 298.714 115.874 291.911 117.219C291.911 117.219 289.476 117.724 287.544 116.042C287.544 116.042 289.224 107.886 289.476 104.858Z" fill="#F3978E"/>
<path d="M295.271 106.961C295.271 106.961 291.491 105.699 288.804 111.333" stroke="#282828" stroke-width="1.3968" stroke-miterlimit="10" stroke-linecap="round" stroke-linejoin="round"/>
<path d="M243.034 104.858C243.034 104.858 240.851 101.327 236.316 103.093C231.781 104.774 233.796 115.874 240.599 117.219C240.599 117.219 243.034 117.724 244.966 116.042C244.966 116.042 243.286 107.886 243.034 104.858Z" fill="#F3978E"/>
<path d="M237.156 106.961C237.156 106.961 240.935 105.699 243.622 111.333" stroke="#282828" stroke-width="1.3968" stroke-miterlimit="10" stroke-linecap="round" stroke-linejoin="round"/>
<path d="M289.896 94.3473C289.896 100.99 289.224 114.949 285.193 123.19C281.33 130.926 275.031 135.13 266.717 135.382C258.403 135.635 252.188 132.439 247.233 122.349C242.278 112.258 242.53 94.5155 242.53 94.5155C242.53 94.5155 242.53 70.8025 265.961 70.8025C290.652 70.7184 289.896 94.3473 289.896 94.3473Z" fill="#FFB1A5"/>
<path d="M250.173 127.31C250.173 127.31 252.944 141.185 264.953 142.782C278.81 144.632 282.505 127.646 282.505 127.646C282.505 127.646 276.375 135.383 266.633 135.383C255.883 135.383 250.173 127.31 250.173 127.31Z" fill="#282828"/>
<path d="M264.533 104.27V109.736C264.533 109.988 264.617 110.156 264.701 110.408C265.037 111.249 265.961 111.585 266.801 111.417L268.649 110.913" stroke="#282828" stroke-width="1.3968" stroke-miterlimit="10" stroke-linecap="round" stroke-linejoin="round"/>
<path d="M255.463 103.681C256.623 103.681 257.563 102.74 257.563 101.579C257.563 100.418 256.623 99.4767 255.463 99.4767C254.304 99.4767 253.364 100.418 253.364 101.579C253.364 102.74 254.304 103.681 255.463 103.681Z" fill="#282828"/>
<path d="M275.451 103.681C276.611 103.681 277.551 102.74 277.551 101.579C277.551 100.418 276.611 99.4767 275.451 99.4767C274.291 99.4767 273.351 100.418 273.351 101.579C273.351 102.74 274.291 103.681 275.451 103.681Z" fill="#282828"/>
<path d="M269.992 90.9838L284.353 94.6837C284.353 94.6837 283.681 90.6474 277.803 89.2179C272.008 87.7043 269.992 90.9838 269.992 90.9838Z" fill="#282828"/>
<path d="M261.09 90.9838L246.729 94.6837C246.729 94.6837 247.401 90.6474 253.28 89.2179C259.159 87.7043 261.09 90.9838 261.09 90.9838Z" fill="#282828"/>
<path d="M258.235 115.285C258.235 115.285 260.334 116.883 265.961 116.883C271 116.883 274.191 115.285 274.191 115.285" stroke="#282828" stroke-width="1.3968" stroke-miterlimit="10" stroke-linecap="round" stroke-linejoin="round"/>
<path d="M254.876 111.333C259.885 111.333 263.946 107.267 263.946 102.252C263.946 97.236 259.885 93.1701 254.876 93.1701C249.866 93.1701 245.806 97.236 245.806 102.252C245.806 107.267 249.866 111.333 254.876 111.333Z" stroke="white" stroke-width="1.9514" stroke-miterlimit="10"/>
<path d="M277.215 111.333C282.224 111.333 286.285 107.267 286.285 102.252C286.285 97.236 282.224 93.1701 277.215 93.1701C272.205 93.1701 268.145 97.236 268.145 102.252C268.145 107.267 272.205 111.333 277.215 111.333Z" stroke="white" stroke-width="1.9514" stroke-miterlimit="10"/>
<path d="M263.946 102.252C263.946 102.252 266.129 100.233 268.061 102.252" stroke="white" stroke-width="1.9514" stroke-miterlimit="10"/>
<path d="M245.806 102.252L242.782 102.168" stroke="white" stroke-width="1.9514" stroke-miterlimit="10"/>
<path d="M286.285 102.252L289.644 102.168" stroke="white" stroke-width="1.9514" stroke-miterlimit="10"/>
<path d="M250.173 73.7456C250.173 73.7456 254.54 86.1066 274.191 85.7703C287.544 85.518 290.736 95.1882 290.736 95.1882C290.736 95.1882 288.384 73.5774 287.796 73.7456C287.208 73.9138 267.473 68.448 267.473 68.448L250.173 73.7456Z" fill="#282828"/>
</g>
</svg>
