<svg width="80" height="80" viewBox="0 0 80 80" fill="none" xmlns="http://www.w3.org/2000/svg">
<path d="M52 39.9996C52 43.1822 50.7357 46.2345 48.4853 48.4849C46.2348 50.7353 43.1826 51.9996 40 51.9996C36.8174 51.9996 33.7651 50.7353 31.5147 48.4849C29.2643 46.2345 28 43.1822 28 39.9996C28 39.3156 28.072 38.6476 28.196 37.9996H24V53.9876C24 55.0996 24.9 55.9996 26.012 55.9996H53.992C54.5249 55.9986 55.0357 55.7861 55.4121 55.4089C55.7886 55.0317 56 54.5205 56 53.9876V37.9996H51.804C51.928 38.6476 52 39.3156 52 39.9996ZM40 47.9996C41.0508 47.9994 42.0913 47.7921 43.0621 47.3897C44.0328 46.9874 44.9148 46.3977 45.6577 45.6545C46.4006 44.9112 46.9898 44.0289 47.3916 43.058C47.7935 42.0871 48.0003 41.0465 48 39.9956C47.9997 38.9448 47.7925 37.9043 47.3901 36.9335C46.9877 35.9628 46.3981 35.0808 45.6549 34.3379C44.9116 33.5951 44.0293 33.0059 43.0584 32.604C42.0874 32.2021 41.0468 31.9953 39.996 31.9956C37.8737 31.9961 35.8386 32.8397 34.3383 34.3408C32.838 35.8418 31.9955 37.8774 31.996 39.9996C31.9965 42.1219 32.8401 44.157 34.3411 45.6573C35.8422 47.1576 37.8777 48.0001 40 47.9996ZM49.6 31.5996H54.396C54.7146 31.5996 55.0203 31.4733 55.2459 31.2484C55.4716 31.0235 55.5989 30.7182 55.6 30.3996V25.6036C55.6 25.2843 55.4731 24.978 55.2474 24.7523C55.0216 24.5265 54.7153 24.3996 54.396 24.3996H49.6C49.2807 24.3996 48.9744 24.5265 48.7486 24.7523C48.5228 24.978 48.396 25.2843 48.396 25.6036V30.3996C48.4 31.0596 48.94 31.5996 49.6 31.5996ZM40 1.59961C29.8157 1.59961 20.0485 5.64531 12.8471 12.8467C5.64569 20.0481 1.59999 29.8153 1.59999 39.9996C1.59999 50.1839 5.64569 59.9511 12.8471 67.1525C20.0485 74.3539 29.8157 78.3996 40 78.3996C45.0428 78.3996 50.0361 77.4064 54.695 75.4766C59.3539 73.5468 63.5871 70.7183 67.1529 67.1525C70.7187 63.5868 73.5472 59.3536 75.477 54.6947C77.4068 50.0358 78.4 45.0424 78.4 39.9996C78.4 34.9569 77.4068 29.9635 75.477 25.3046C73.5472 20.6457 70.7187 16.4125 67.1529 12.8467C63.5871 9.28094 59.3539 6.45242 54.695 4.52264C50.0361 2.59285 45.0428 1.59961 40 1.59961ZM60 55.5556C60 57.9996 58 59.9996 55.556 59.9996H24.444C22 59.9996 20 57.9996 20 55.5556V24.4436C20 21.9996 22 19.9996 24.444 19.9996H55.556C58 19.9996 60 21.9996 60 24.4436V55.5556Z" fill="#4DAAE1"/>
</svg>
