<svg width="257" height="40" viewBox="0 0 257 40" fill="none" xmlns="http://www.w3.org/2000/svg">
<path fill-rule="evenodd" clip-rule="evenodd" d="M9.16513 0L0 9.16513L9.16513 18.3303V0Z" fill="#41A9E0"/>
<path fill-rule="evenodd" clip-rule="evenodd" d="M20.8349 10.7603L30 19.9254L20.8349 29.0906V10.7603Z" fill="#41A9E0"/>
<path fill-rule="evenodd" clip-rule="evenodd" d="M9.16513 21.489L0 30.6541L9.16513 39.8193V21.489Z" fill="#41A9E0"/>
<path fill-rule="evenodd" clip-rule="evenodd" d="M10.4827 0.341858V39.3598L19.5174 30.3251V9.37654L10.4827 0.341858Z" fill="#41A9E0"/>
<path d="M56.7713 27L57.8509 23.6832H63.0994L64.179 27H67.4744L62.4602 12.4545H58.4972L53.4759 27H56.7713ZM58.6321 21.2827L60.4219 15.7784H60.5355L62.3253 21.2827H58.6321ZM69.2251 27H72.3004V20.9915H78.2166V18.456H72.3004V14.9901H78.8558V12.4545H69.2251V27ZM83.9996 12.4545H80.9244V27H83.9996V12.4545ZM86.5298 27H95.8409V24.4645H89.6051V12.4545H86.5298V27ZM100.756 27L101.835 23.6832H107.084L108.163 27H111.459L106.445 12.4545H102.482L97.4602 27H100.756ZM102.616 21.2827L104.406 15.7784H104.52L106.31 21.2827H102.616ZM117.838 12.4545V27H120.821V17.4972H120.942L124.706 26.929H126.738L130.502 17.5327H130.623V27H133.605V12.4545H129.813L125.807 22.2273H125.637L121.631 12.4545H117.838ZM136.139 27H145.969V24.4645H139.214V20.9915H145.436V18.456H139.214V14.9901H145.94V12.4545H136.139V27ZM153.542 27C157.973 27 160.658 24.2585 160.658 19.7131C160.658 15.1818 157.973 12.4545 153.584 12.4545H148.385V27H153.542ZM151.461 24.3651V15.0895H153.421C156.148 15.0895 157.59 16.4815 157.59 19.7131C157.59 22.9588 156.148 24.3651 153.414 24.3651H151.461ZM166.011 12.4545H162.936V27H166.011V12.4545ZM171.049 27L172.128 23.6832H177.377L178.456 27H181.752L176.738 12.4545H172.775L167.753 27H171.049ZM172.909 21.2827L174.699 15.7784H174.813L176.603 21.2827H172.909ZM188.131 27H191.207V22.8665L192.719 21.0199L196.704 27H200.383L194.921 18.9673L200.319 12.4545H196.633L191.398 18.8679H191.207V12.4545H188.131V27ZM204.428 27L205.507 23.6832H210.756L211.835 27H215.131L210.116 12.4545H206.153L201.132 27H204.428ZM206.288 21.2827L208.078 15.7784H208.192L209.982 21.2827H206.288ZM216.881 27H219.957V21.8438H222.201L224.957 27H228.352L225.262 21.3466C226.917 20.6364 227.833 19.1946 227.833 17.206C227.833 14.3153 225.923 12.4545 222.62 12.4545H216.881V27ZM219.957 19.3722V14.9688H222.031C223.806 14.9688 224.665 15.7571 224.665 17.206C224.665 18.6477 223.806 19.3722 222.045 19.3722H219.957ZM229.154 12.4545L234.46 21.858V27H237.513V21.858L242.819 12.4545H239.374L236.058 18.7188H235.915L232.599 12.4545H229.154ZM245.521 27L246.601 23.6832H251.849L252.929 27H256.224L251.21 12.4545H247.247L242.226 27H245.521ZM247.382 21.2827L249.172 15.7784H249.286L251.075 21.2827H247.382Z" fill="#0F0F0F"/>
</svg>
