<svg width="257" height="46" viewBox="0 0 257 46" fill="none" xmlns="http://www.w3.org/2000/svg">
<path fill-rule="evenodd" clip-rule="evenodd" d="M9.16513 0L0 9.16513L9.16513 18.3303V0Z" fill="#41A9E0"/>
<path fill-rule="evenodd" clip-rule="evenodd" d="M20.8349 10.7603L30 19.9254L20.8349 29.0906V10.7603Z" fill="#41A9E0"/>
<path fill-rule="evenodd" clip-rule="evenodd" d="M9.16513 21.489L0 30.6541L9.16513 39.8193V21.489Z" fill="#41A9E0"/>
<path fill-rule="evenodd" clip-rule="evenodd" d="M10.4827 0.341858V39.3598L19.5174 30.3251V9.37654L10.4827 0.341858Z" fill="#41A9E0"/>
<path d="M56.7713 20L57.8509 16.6832H63.0994L64.179 20H67.4744L62.4602 5.45455H58.4972L53.4759 20H56.7713ZM58.6321 14.2827L60.4219 8.77841H60.5355L62.3253 14.2827H58.6321ZM69.2251 20H72.3004V13.9915H78.2166V11.456H72.3004V7.99006H78.8558V5.45455H69.2251V20ZM83.9996 5.45455H80.9244V20H83.9996V5.45455ZM86.5298 20H95.8409V17.4645H89.6051V5.45455H86.5298V20ZM100.756 20L101.835 16.6832H107.084L108.163 20H111.459L106.445 5.45455H102.482L97.4602 20H100.756ZM102.616 14.2827L104.406 8.77841H104.52L106.31 14.2827H102.616ZM117.838 5.45455V20H120.821V10.4972H120.942L124.706 19.929H126.738L130.502 10.5327H130.623V20H133.605V5.45455H129.813L125.807 15.2273H125.637L121.631 5.45455H117.838ZM136.139 20H145.969V17.4645H139.214V13.9915H145.436V11.456H139.214V7.99006H145.94V5.45455H136.139V20ZM153.542 20C157.973 20 160.658 17.2585 160.658 12.7131C160.658 8.18182 157.973 5.45455 153.584 5.45455H148.385V20H153.542ZM151.461 17.3651V8.08949H153.421C156.148 8.08949 157.59 9.48153 157.59 12.7131C157.59 15.9588 156.148 17.3651 153.414 17.3651H151.461ZM166.011 5.45455H162.936V20H166.011V5.45455ZM171.049 20L172.128 16.6832H177.377L178.456 20H181.752L176.738 5.45455H172.775L167.753 20H171.049ZM172.909 14.2827L174.699 8.77841H174.813L176.603 14.2827H172.909ZM188.131 20H191.207V15.8665L192.719 14.0199L196.704 20H200.383L194.921 11.9673L200.319 5.45455H196.633L191.398 11.8679H191.207V5.45455H188.131V20ZM204.428 20L205.507 16.6832H210.756L211.835 20H215.131L210.116 5.45455H206.153L201.132 20H204.428ZM206.288 14.2827L208.078 8.77841H208.192L209.982 14.2827H206.288ZM216.881 20H219.957V14.8438H222.201L224.957 20H228.352L225.262 14.3466C226.917 13.6364 227.833 12.1946 227.833 10.206C227.833 7.31534 225.923 5.45455 222.62 5.45455H216.881V20ZM219.957 12.3722V7.96875H222.031C223.806 7.96875 224.665 8.7571 224.665 10.206C224.665 11.6477 223.806 12.3722 222.045 12.3722H219.957ZM229.154 5.45455L234.46 14.858V20H237.513V14.858L242.819 5.45455H239.374L236.058 11.7188H235.915L232.599 5.45455H229.154ZM245.521 20L246.601 16.6832H251.849L252.929 20H256.224L251.21 5.45455H247.247L242.226 20H245.521ZM247.382 14.2827L249.172 8.77841H249.286L251.075 14.2827H247.382Z" fill="#0F0F0F"/>
<path d="M60.504 39.234H62.324V40.76H60.322L60.042 43H58.46L58.74 40.76H56.682L56.402 43H54.834L55.114 40.76H53.28V39.234H55.296L55.59 36.966H53.756V35.44H55.772L56.052 33.2H57.62L57.34 35.44H59.398L59.678 33.2H61.246L60.966 35.44H62.786L62.8 36.966H60.784L60.504 39.234ZM58.922 39.234L59.216 36.966H57.158L56.864 39.234H58.922ZM70.8602 37.946H72.9322V41.922C72.4002 42.3233 71.7842 42.6313 71.0842 42.846C70.3842 43.0607 69.6795 43.168 68.9702 43.168C67.9528 43.168 67.0382 42.9533 66.2262 42.524C65.4142 42.0853 64.7748 41.4833 64.3082 40.718C63.8508 39.9433 63.6222 39.0707 63.6222 38.1C63.6222 37.1293 63.8508 36.2613 64.3082 35.496C64.7748 34.7213 65.4188 34.1193 66.2402 33.69C67.0615 33.2513 67.9855 33.032 69.0122 33.032C69.8708 33.032 70.6502 33.1767 71.3502 33.466C72.0502 33.7553 72.6382 34.1753 73.1142 34.726L71.6582 36.07C70.9582 35.3327 70.1135 34.964 69.1242 34.964C68.4988 34.964 67.9435 35.0947 67.4582 35.356C66.9728 35.6173 66.5948 35.986 66.3242 36.462C66.0535 36.938 65.9182 37.484 65.9182 38.1C65.9182 38.7067 66.0535 39.248 66.3242 39.724C66.5948 40.2 66.9682 40.5733 67.4442 40.844C67.9295 41.1053 68.4802 41.236 69.0962 41.236C69.7495 41.236 70.3375 41.096 70.8602 40.816V37.946ZM76.971 36.462C77.2323 36.098 77.5823 35.8227 78.021 35.636C78.469 35.4493 78.9823 35.356 79.561 35.356V37.372C79.3183 37.3533 79.155 37.344 79.071 37.344C78.4456 37.344 77.9556 37.5213 77.601 37.876C77.2463 38.2213 77.069 38.744 77.069 39.444V43H74.885V35.468H76.971V36.462ZM84.3752 43.112C83.5819 43.112 82.8679 42.9487 82.2332 42.622C81.6079 42.286 81.1179 41.824 80.7632 41.236C80.4085 40.648 80.2312 39.9807 80.2312 39.234C80.2312 38.4873 80.4085 37.82 80.7632 37.232C81.1179 36.644 81.6079 36.1867 82.2332 35.86C82.8679 35.524 83.5819 35.356 84.3752 35.356C85.1685 35.356 85.8779 35.524 86.5032 35.86C87.1285 36.1867 87.6185 36.644 87.9732 37.232C88.3279 37.82 88.5052 38.4873 88.5052 39.234C88.5052 39.9807 88.3279 40.648 87.9732 41.236C87.6185 41.824 87.1285 42.286 86.5032 42.622C85.8779 42.9487 85.1685 43.112 84.3752 43.112ZM84.3752 41.32C84.9352 41.32 85.3925 41.1333 85.7472 40.76C86.1112 40.3773 86.2932 39.8687 86.2932 39.234C86.2932 38.5993 86.1112 38.0953 85.7472 37.722C85.3925 37.3393 84.9352 37.148 84.3752 37.148C83.8152 37.148 83.3532 37.3393 82.9892 37.722C82.6252 38.0953 82.4432 38.5993 82.4432 39.234C82.4432 39.8687 82.6252 40.3773 82.9892 40.76C83.3532 41.1333 83.8152 41.32 84.3752 41.32ZM101.856 35.468L99.126 43H97.026L95.332 38.324L93.582 43H91.482L88.766 35.468H90.824L92.602 40.564L94.45 35.468H96.298L98.09 40.564L99.924 35.468H101.856ZM107.934 42.636C107.72 42.7947 107.454 42.916 107.136 43C106.828 43.0747 106.502 43.112 106.156 43.112C105.26 43.112 104.565 42.8833 104.07 42.426C103.585 41.9687 103.342 41.2967 103.342 40.41V37.316H102.18V35.636H103.342V33.802H105.526V35.636H107.402V37.316H105.526V40.382C105.526 40.6993 105.606 40.9467 105.764 41.124C105.932 41.292 106.166 41.376 106.464 41.376C106.81 41.376 107.104 41.2827 107.346 41.096L107.934 42.636ZM113.738 35.356C114.672 35.356 115.423 35.636 115.992 36.196C116.571 36.756 116.86 37.5867 116.86 38.688V43H114.676V39.024C114.676 38.4267 114.546 37.9833 114.284 37.694C114.023 37.3953 113.645 37.246 113.15 37.246C112.6 37.246 112.161 37.4187 111.834 37.764C111.508 38.1 111.344 38.604 111.344 39.276V43H109.16V32.612H111.344V36.252C111.634 35.9627 111.984 35.7433 112.394 35.594C112.805 35.4353 113.253 35.356 113.738 35.356ZM121.024 35.048H117.888V33.2H126.428V35.048H123.292V43H121.024V35.048ZM130.313 43.112C129.519 43.112 128.805 42.9487 128.171 42.622C127.545 42.286 127.055 41.824 126.701 41.236C126.346 40.648 126.169 39.9807 126.169 39.234C126.169 38.4873 126.346 37.82 126.701 37.232C127.055 36.644 127.545 36.1867 128.171 35.86C128.805 35.524 129.519 35.356 130.313 35.356C131.106 35.356 131.815 35.524 132.441 35.86C133.066 36.1867 133.556 36.644 133.911 37.232C134.265 37.82 134.443 38.4873 134.443 39.234C134.443 39.9807 134.265 40.648 133.911 41.236C133.556 41.824 133.066 42.286 132.441 42.622C131.815 42.9487 131.106 43.112 130.313 43.112ZM130.313 41.32C130.873 41.32 131.33 41.1333 131.685 40.76C132.049 40.3773 132.231 39.8687 132.231 39.234C132.231 38.5993 132.049 38.0953 131.685 37.722C131.33 37.3393 130.873 37.148 130.313 37.148C129.753 37.148 129.291 37.3393 128.927 37.722C128.563 38.0953 128.381 38.5993 128.381 39.234C128.381 39.8687 128.563 40.3773 128.927 40.76C129.291 41.1333 129.753 41.32 130.313 41.32ZM143.673 35.468V41.74C143.673 43.1213 143.313 44.148 142.595 44.82C141.876 45.492 140.826 45.828 139.445 45.828C138.717 45.828 138.026 45.7393 137.373 45.562C136.719 45.3847 136.178 45.128 135.749 44.792L136.617 43.224C136.934 43.4853 137.335 43.6907 137.821 43.84C138.306 43.9987 138.791 44.078 139.277 44.078C140.033 44.078 140.588 43.9053 140.943 43.56C141.307 43.224 141.489 42.7107 141.489 42.02V41.698C140.919 42.3233 140.126 42.636 139.109 42.636C138.418 42.636 137.783 42.4867 137.205 42.188C136.635 41.88 136.183 41.4507 135.847 40.9C135.511 40.3493 135.343 39.7147 135.343 38.996C135.343 38.2773 135.511 37.6427 135.847 37.092C136.183 36.5413 136.635 36.1167 137.205 35.818C137.783 35.51 138.418 35.356 139.109 35.356C140.201 35.356 141.031 35.7153 141.601 36.434V35.468H143.673ZM139.543 40.844C140.121 40.844 140.593 40.676 140.957 40.34C141.33 39.9947 141.517 39.5467 141.517 38.996C141.517 38.4453 141.33 38.002 140.957 37.666C140.593 37.3207 140.121 37.148 139.543 37.148C138.964 37.148 138.488 37.3207 138.115 37.666C137.741 38.002 137.555 38.4453 137.555 38.996C137.555 39.5467 137.741 39.9947 138.115 40.34C138.488 40.676 138.964 40.844 139.543 40.844ZM153.083 39.262C153.083 39.29 153.069 39.486 153.041 39.85H147.343C147.446 40.3167 147.689 40.6853 148.071 40.956C148.454 41.2267 148.93 41.362 149.499 41.362C149.891 41.362 150.237 41.306 150.535 41.194C150.843 41.0727 151.128 40.886 151.389 40.634L152.551 41.894C151.842 42.706 150.806 43.112 149.443 43.112C148.594 43.112 147.843 42.9487 147.189 42.622C146.536 42.286 146.032 41.824 145.677 41.236C145.323 40.648 145.145 39.9807 145.145 39.234C145.145 38.4967 145.318 37.834 145.663 37.246C146.018 36.6487 146.499 36.1867 147.105 35.86C147.721 35.524 148.407 35.356 149.163 35.356C149.901 35.356 150.568 35.5147 151.165 35.832C151.763 36.1493 152.229 36.6067 152.565 37.204C152.911 37.792 153.083 38.478 153.083 39.262ZM149.177 37.008C148.683 37.008 148.267 37.148 147.931 37.428C147.595 37.708 147.39 38.0907 147.315 38.576H151.025C150.951 38.1 150.745 37.722 150.409 37.442C150.073 37.1527 149.663 37.008 149.177 37.008ZM159.395 42.636C159.181 42.7947 158.915 42.916 158.597 43C158.289 43.0747 157.963 43.112 157.617 43.112C156.721 43.112 156.026 42.8833 155.531 42.426C155.046 41.9687 154.803 41.2967 154.803 40.41V37.316H153.641V35.636H154.803V33.802H156.987V35.636H158.863V37.316H156.987V40.382C156.987 40.6993 157.067 40.9467 157.225 41.124C157.393 41.292 157.627 41.376 157.925 41.376C158.271 41.376 158.565 41.2827 158.807 41.096L159.395 42.636ZM165.199 35.356C166.133 35.356 166.884 35.636 167.453 36.196C168.032 36.756 168.321 37.5867 168.321 38.688V43H166.137V39.024C166.137 38.4267 166.007 37.9833 165.745 37.694C165.484 37.3953 165.106 37.246 164.611 37.246C164.061 37.246 163.622 37.4187 163.295 37.764C162.969 38.1 162.805 38.604 162.805 39.276V43H160.621V32.612H162.805V36.252C163.095 35.9627 163.445 35.7433 163.855 35.594C164.266 35.4353 164.714 35.356 165.199 35.356ZM177.761 39.262C177.761 39.29 177.747 39.486 177.719 39.85H172.021C172.124 40.3167 172.366 40.6853 172.749 40.956C173.132 41.2267 173.608 41.362 174.177 41.362C174.569 41.362 174.914 41.306 175.213 41.194C175.521 41.0727 175.806 40.886 176.067 40.634L177.229 41.894C176.52 42.706 175.484 43.112 174.121 43.112C173.272 43.112 172.52 42.9487 171.867 42.622C171.214 42.286 170.71 41.824 170.355 41.236C170 40.648 169.823 39.9807 169.823 39.234C169.823 38.4967 169.996 37.834 170.341 37.246C170.696 36.6487 171.176 36.1867 171.783 35.86C172.399 35.524 173.085 35.356 173.841 35.356C174.578 35.356 175.246 35.5147 175.843 35.832C176.44 36.1493 176.907 36.6067 177.243 37.204C177.588 37.792 177.761 38.478 177.761 39.262ZM173.855 37.008C173.36 37.008 172.945 37.148 172.609 37.428C172.273 37.708 172.068 38.0907 171.993 38.576H175.703C175.628 38.1 175.423 37.722 175.087 37.442C174.751 37.1527 174.34 37.008 173.855 37.008ZM181.301 36.462C181.562 36.098 181.912 35.8227 182.351 35.636C182.799 35.4493 183.312 35.356 183.891 35.356V37.372C183.648 37.3533 183.485 37.344 183.401 37.344C182.776 37.344 182.286 37.5213 181.931 37.876C181.576 38.2213 181.399 38.744 181.399 39.444V43H179.215V35.468H181.301V36.462Z" fill="#41A9E0"/>
</svg>
