<svg width="540" height="337" viewBox="0 0 540 337" fill="none" xmlns="http://www.w3.org/2000/svg">
<path d="M535.969 260.506H494.65C492.886 260.506 491.459 259.077 491.459 257.311C491.459 255.545 492.886 254.115 494.65 254.115H535.969C537.732 254.115 539.16 255.545 539.16 257.311C539.16 259.077 537.732 260.506 535.969 260.506Z" fill="#56DFED"/>
<path d="M28.3017 319.536H23.2629C21.9192 319.536 20.8274 318.443 20.8274 317.098V312.389C20.8274 311.043 21.9192 309.95 23.2629 309.95H28.3017C29.6454 309.95 30.7372 311.043 30.7372 312.389V317.098C30.7372 318.443 29.6454 319.536 28.3017 319.536Z" fill="#FFB1A5"/>
<path d="M93.2193 52.219H8.0622C6.29859 52.219 4.87091 50.7895 4.87091 49.0236C4.87091 47.2578 6.29859 45.8282 8.0622 45.8282H93.2193C94.9829 45.8282 96.4106 47.2578 96.4106 49.0236C96.3266 50.7895 94.8989 52.219 93.2193 52.219Z" fill="#1F1F3E"/>
<path d="M507.079 297.421H502.04C500.697 297.421 499.605 296.328 499.605 294.983V290.274C499.605 288.928 500.697 287.835 502.04 287.835H507.079C508.423 287.835 509.515 288.928 509.515 290.274V294.983C509.431 296.328 508.339 297.421 507.079 297.421Z" fill="#1F1F3E"/>
<path d="M414.868 48.9395H330.803C329.375 48.9395 328.283 47.8463 328.283 46.4168V25.8992C328.283 24.4697 329.375 23.3766 330.803 23.3766H414.868C416.296 23.3766 417.387 24.4697 417.387 25.8992V46.4168C417.387 47.8463 416.212 48.9395 414.868 48.9395Z" fill="#F75B19"/>
<path d="M340.376 32.4581H400.171" stroke="white" stroke-width="1.1803" stroke-miterlimit="10"/>
<path d="M340.376 38.5966H364.731" stroke="white" stroke-width="1.1803" stroke-miterlimit="10"/>
<path d="M337.941 46.0805V56.0029L350.538 46.0805H337.941Z" fill="#FFB1A5"/>
</svg>
