<svg width="422" height="282" viewBox="0 0 422 282" fill="none" xmlns="http://www.w3.org/2000/svg">
<path d="M1.54279 47.7652H420.862" stroke="#DED8D5" stroke-width="1.9678" stroke-miterlimit="10"/>
<path d="M415.403 280.018H7.00157C3.97824 280.018 1.54279 277.579 1.54279 274.552V25.734C1.54279 22.7068 3.97824 20.2683 7.00157 20.2683H415.403C418.426 20.2683 420.862 22.7068 420.862 25.734V274.552C420.862 277.579 418.426 280.018 415.403 280.018Z" stroke="#DED8D5" stroke-width="1.9678" stroke-miterlimit="10"/>
<path d="M25.3095 38.095C27.4431 38.095 29.1727 36.3632 29.1727 34.227C29.1727 32.0907 27.4431 30.3589 25.3095 30.3589C23.1759 30.3589 21.4464 32.0907 21.4464 34.227C21.4464 36.3632 23.1759 38.095 25.3095 38.095Z" fill="#FFB1A5"/>
<path d="M40.1742 38.095C42.3078 38.095 44.0373 36.3632 44.0373 34.227C44.0373 32.0907 42.3078 30.3589 40.1742 30.3589C38.0406 30.3589 36.3111 32.0907 36.3111 34.227C36.3111 36.3632 38.0406 38.095 40.1742 38.095Z" fill="#EAD254"/>
<path d="M55.1229 38.095C57.2564 38.095 58.986 36.3632 58.986 34.227C58.986 32.0907 57.2564 30.3589 55.1229 30.3589C52.9893 30.3589 51.2597 32.0907 51.2597 34.227C51.2597 36.3632 52.9893 38.095 55.1229 38.095Z" fill="#00857B"/>
<mask id="mask0" mask-type="alpha" maskUnits="userSpaceOnUse" x="17" y="0" width="383" height="278">
<rect x="17" width="383" height="278" fill="#C4C4C4"/>
</mask>
<g mask="url(#mask0)">
<path d="M328.146 185.586L297.493 181.466L297.745 184.493L271.543 188.025C271.543 188.025 254.663 230.49 269.527 323.828H290.858L298.501 229.228H301.188L308.579 323.828H329.994C344.942 230.49 328.146 185.586 328.146 185.586Z" fill="#8E716C"/>
<path d="M288.759 229.144H311.014" stroke="#282828" stroke-width="1.2333" stroke-miterlimit="10" stroke-linecap="round" stroke-linejoin="round"/>
<path d="M346.118 140.767C343.515 136.563 328.734 136.731 327.978 136.647C324.031 136.142 330.498 167.928 338.812 195.677C340.407 200.975 346.202 203.749 351.325 201.563C351.409 201.563 351.409 201.479 351.493 201.479C355.524 199.797 357.792 195.509 357.036 191.136C353.089 170.282 349.142 145.644 346.118 140.767Z" fill="#FFB1A5"/>
<path d="M349.561 152.287L330.75 159.603L328.986 150.605L348.47 145.812L349.561 152.287Z" fill="#F3978E"/>
<path d="M353.173 170.114C353.173 170.114 344.271 182.055 344.691 181.55C345.11 180.961 351.661 162.21 351.661 162.21L353.173 170.114Z" fill="#F3978E"/>
<path d="M365.854 154.053L340.323 187.184C336.964 191.557 338.056 197.863 342.675 200.806C347.294 203.833 353.425 202.236 356.028 197.359L377.275 158.089L365.854 154.053Z" fill="#FFB1A5"/>
<path d="M385.756 155.711C387.538 150.187 384.511 144.262 378.994 142.478C373.477 140.693 367.559 143.725 365.777 149.249C363.995 154.773 367.023 160.698 372.54 162.482C378.057 164.267 383.974 161.235 385.756 155.711Z" fill="#FFB1A5"/>
<path d="M383.406 146.149C383.406 146.149 386.261 143.122 381.138 141.019C376.016 138.917 369.717 139.422 365.686 149.176L383.406 146.149Z" fill="#FFB1A5"/>
<path d="M388.697 125.211L399.362 129.836C399.95 130.088 400.202 130.761 399.866 131.433L385.757 157.753C385.422 158.342 384.666 158.678 384.078 158.426L373.412 153.801C372.824 153.549 372.572 152.876 372.908 152.203L387.017 125.883C387.353 125.295 388.109 124.958 388.697 125.211Z" fill="#372F5F"/>
<path d="M387.689 124.79L398.355 129.415C398.942 129.667 399.194 130.34 398.858 131.013L384.75 157.333C384.414 157.921 383.658 158.258 383.07 158.005L372.404 153.38C371.816 153.128 371.565 152.455 371.9 151.783L386.009 125.463C386.345 124.79 387.101 124.538 387.689 124.79Z" fill="#261B43"/>
<path d="M386.513 127.481L395.919 131.517L384.414 152.96L375.008 148.924L386.513 127.481Z" fill="#E6E6E6"/>
<path d="M395.919 131.517L375.008 148.924L386.513 127.481L395.919 131.517Z" fill="white"/>
<path d="M378.115 140.179C378.115 140.179 380.467 140.683 382.65 141.86C383.574 142.365 384.078 143.458 383.826 144.551C383.574 145.476 382.818 146.233 381.81 146.317L376.268 146.99C376.268 146.99 373.328 152.035 369.549 152.54L372.992 143.71L378.115 140.179Z" fill="#FFB1A5"/>
<path d="M307.151 99.0592C306.563 99.0592 346.538 104.609 353.173 150.353L332.429 153.549L328.23 188.025H270.283L258.778 124.286C258.778 124.286 271.627 105.87 295.477 99.0592H307.151Z" fill="#7195F2"/>
<path d="M332.345 153.549L334.193 133.536" stroke="#282828" stroke-width="1.2333" stroke-miterlimit="10" stroke-linecap="round" stroke-linejoin="round"/>
<path d="M310.93 99.7319V83.8392H292.37V99.9001C291.446 100.152 289.851 100.741 287.415 101.918L301.944 110.579L316.725 101.918C316.641 101.918 314.289 100.573 310.93 99.7319Z" fill="#FFB1A5"/>
<path d="M292.202 85.7732C292.202 85.7732 295.561 94.6866 304.464 93.8457C312.61 93.173 311.35 80.812 311.35 80.812L292.202 85.7732Z" fill="#282828"/>
<path d="M284.056 74.0008C281.117 76.6076 274.65 66.6011 277.421 63.8261C280.277 61.0512 282.376 65.4238 282.376 65.4238L283.636 68.451L284.56 72.4872L284.812 73.5804L284.056 74.0008Z" fill="#F3978E"/>
<path d="M278.765 67.3578C278.765 67.3578 280.949 66.3488 282.964 69.5442" stroke="#282828" stroke-width="0.9928" stroke-miterlimit="10" stroke-linecap="round" stroke-linejoin="round"/>
<path d="M318.488 73.6645C321.176 76.5235 328.482 67.1056 325.963 64.0784C323.359 61.0512 320.924 65.2556 320.924 65.2556L319.412 68.1147L318.152 72.0668L317.817 73.0759L318.488 73.6645Z" fill="#F3978E"/>
<path d="M324.283 67.526C324.283 67.526 322.184 66.3488 319.916 69.376" stroke="#282828" stroke-width="0.9928" stroke-miterlimit="10" stroke-linecap="round" stroke-linejoin="round"/>
<path d="M278.933 54.2401C278.933 67.526 289.011 73.8327 301.524 73.8327C314.037 73.8327 324.115 67.526 324.115 54.2401C324.115 40.9541 314.037 31.9566 301.524 31.9566C289.011 31.9566 278.933 40.9541 278.933 54.2401Z" fill="#282828"/>
<path d="M282.04 55.165C282.04 63.3216 283.216 70.385 284.308 75.3463C285.4 80.2234 288.591 83.671 293.042 86.3619L293.882 86.8664C298.585 89.8095 304.715 89.8095 309.502 87.0346C314.373 84.1756 317.733 80.4757 318.824 75.2622C320.756 65.7602 320.924 55.165 320.924 55.165C320.924 55.165 322.771 34.5633 301.776 34.9838C280.781 35.3201 282.04 55.165 282.04 55.165Z" fill="#FFB1A5"/>
<path d="M300.18 66.8533V69.7123C300.18 69.8805 300.18 70.0487 300.264 70.2169C300.516 70.8055 301.188 71.0578 301.776 70.8896L303.12 70.5532" stroke="#282828" stroke-width="1.2316" stroke-miterlimit="10" stroke-linecap="round" stroke-linejoin="round"/>
<path d="M296.821 55.8377L286.408 58.2763C286.408 58.2763 286.911 55.5855 291.11 54.6605C295.478 53.7355 296.821 55.8377 296.821 55.8377Z" fill="#282828"/>
<path d="M306.143 55.8377L316.221 58.2763C316.221 58.2763 315.801 55.5855 311.686 54.6605C307.487 53.7355 306.143 55.8377 306.143 55.8377Z" fill="#282828"/>
<path d="M292.874 65.2556C293.848 65.2556 294.638 64.465 294.638 63.4898C294.638 62.5145 293.848 61.7239 292.874 61.7239C291.9 61.7239 291.11 62.5145 291.11 63.4898C291.11 64.465 291.9 65.2556 292.874 65.2556Z" fill="#282828"/>
<path d="M309.586 65.2556C310.56 65.2556 311.35 64.465 311.35 63.4898C311.35 62.5145 310.56 61.7239 309.586 61.7239C308.612 61.7239 307.823 62.5145 307.823 63.4898C307.823 64.465 308.612 65.2556 309.586 65.2556Z" fill="#282828"/>
<path d="M294.638 74.2531H308.159C308.243 74.2531 302.196 81.5688 294.638 74.2531Z" fill="white"/>
<path d="M292.202 71.6464C296.33 71.6464 299.677 68.2957 299.677 64.1625C299.677 60.0292 296.33 56.6786 292.202 56.6786C288.074 56.6786 284.728 60.0292 284.728 64.1625C284.728 68.2957 288.074 71.6464 292.202 71.6464Z" stroke="#C98BD2" stroke-width="1.3423" stroke-miterlimit="10"/>
<path d="M310.51 71.6464C314.638 71.6464 317.984 68.2957 317.984 64.1625C317.984 60.0292 314.638 56.6786 310.51 56.6786C306.382 56.6786 303.036 60.0292 303.036 64.1625C303.036 68.2957 306.382 71.6464 310.51 71.6464Z" stroke="#C98BD2" stroke-width="1.3423" stroke-miterlimit="10"/>
<path d="M299.677 64.1625C299.677 64.1625 301.44 62.4807 303.12 64.1625" stroke="#C98BD2" stroke-width="1.3423" stroke-miterlimit="10"/>
<path d="M284.644 64.1625H282.292" stroke="#C98BD2" stroke-width="1.3423" stroke-miterlimit="10"/>
<path d="M317.984 64.1625H320.42" stroke="#C98BD2" stroke-width="1.3423" stroke-miterlimit="10"/>
<path d="M320.672 61.9762C320.672 61.9762 312.274 50.6242 314.205 39.1041C314.205 39.1041 320.42 42.2154 322.016 50.372C323.695 58.4445 320.672 61.9762 320.672 61.9762Z" fill="#282828"/>
<path d="M282.04 62.733C282.04 62.733 291.782 49.8674 289.851 38.3473C289.851 38.3473 283.132 42.2154 281.453 50.372C279.773 58.4445 282.04 62.733 282.04 62.733Z" fill="#282828"/>
<path d="M319.916 43.6449C319.916 43.6449 309.166 55.4173 279.689 53.3992C279.689 53.3992 284.224 36.0769 298.501 34.227C298.501 34.227 314.961 32.293 319.916 43.6449Z" fill="#282828"/>
<path d="M319.16 43.9812C326.952 43.9812 333.269 37.6564 333.269 29.8544C333.269 22.0523 326.952 15.7275 319.16 15.7275C311.368 15.7275 305.051 22.0523 305.051 29.8544C305.051 37.6564 311.368 43.9812 319.16 43.9812Z" fill="#282828"/>
<path d="M147.418 185.502L121.216 181.971L121.468 178.943L90.815 183.064C90.815 183.064 74.1027 227.967 88.9674 321.305H110.299L117.689 226.706H120.376L128.019 321.305H149.434C164.299 227.967 147.418 185.502 147.418 185.502Z" fill="#282828"/>
<path d="M145.319 57.8558C141.792 53.6514 138.936 48.7743 136.501 41.9631C133.897 34.6474 125.415 37.5905 125.415 37.5905C125.415 37.5905 118.361 28.5089 107.695 31.6202C97.0296 34.8156 93.3344 42.3835 93.1664 51.381C92.9145 60.3785 85.8601 61.808 80.4013 72.235C70.7434 90.6504 86.9518 106.123 116.513 101.834V101.582C119.453 102.507 122.98 102.843 127.347 102.591C162.787 100.489 159.344 74.4213 145.319 57.8558Z" fill="#282828"/>
<path d="M133.729 71.4782C136.669 74.0849 143.135 64.0784 140.364 61.3035C137.593 58.5285 135.409 62.9011 135.409 62.9011L134.149 65.9283L133.226 69.9646L132.974 71.0577L133.729 71.4782Z" fill="#F3978E"/>
<path d="M138.936 64.8352C138.936 64.8352 136.753 63.8261 134.737 67.0215" stroke="#282828" stroke-width="0.9928" stroke-miterlimit="10" stroke-linecap="round" stroke-linejoin="round"/>
<path d="M99.2971 71.2259C96.6097 74.0849 89.3033 64.667 91.8227 61.6398C94.4262 58.6126 96.8616 62.8171 96.8616 62.8171L98.3733 65.6761L99.633 69.6282L99.9689 70.6373L99.2971 71.2259Z" fill="#F3978E"/>
<path d="M93.5024 65.0034C93.5024 65.0034 95.6019 63.8261 97.8694 66.8533" stroke="#282828" stroke-width="0.9928" stroke-miterlimit="10" stroke-linecap="round" stroke-linejoin="round"/>
<path d="M138.852 51.7174C138.852 65.0034 128.775 71.31 116.261 71.31C103.748 71.31 93.6703 65.0034 93.6703 51.7174C93.6703 38.4314 103.748 29.4339 116.261 29.4339C128.775 29.4339 138.852 38.4314 138.852 51.7174Z" fill="#282828"/>
<path d="M125.415 81.4006H106.855V105.534H125.415V81.4006Z" fill="#FFB1A5"/>
<path d="M104.168 79.887C104.168 79.887 109.375 90.2299 115.673 91.8276C117.353 92.248 119.201 92.0799 120.796 91.4912C123.232 90.6504 126.255 87.0346 126.759 83.0824L127.011 80.812C127.011 80.8961 115.673 87.0346 104.168 79.887Z" fill="#282828"/>
<path d="M135.745 52.6423C135.745 60.7989 134.569 67.8624 133.478 72.8236C132.386 77.7007 129.194 81.1483 124.743 83.8392L123.904 84.3437C119.201 87.2868 113.07 87.2868 108.283 84.5119C103.412 81.6529 100.053 77.953 98.9612 72.7395C97.0296 63.2375 96.8616 52.6423 96.8616 52.6423C96.8616 52.6423 95.014 32.0407 116.009 32.4611C137.005 32.8815 135.745 52.6423 135.745 52.6423Z" fill="#FFB1A5"/>
<path d="M114.834 65.5079V67.1897C114.834 67.3578 114.834 67.526 114.918 67.6942C115.17 68.2828 115.841 68.5351 116.429 68.3669L117.773 68.0306" stroke="#282828" stroke-width="1.2298" stroke-miterlimit="10" stroke-linecap="round" stroke-linejoin="round"/>
<path d="M119.201 54.3241L130.37 56.9309C130.37 56.9309 129.866 54.0719 125.331 52.9787C120.796 51.8856 119.201 54.3241 119.201 54.3241Z" fill="#282828"/>
<path d="M113.322 54.3235L101.984 56.9303C101.984 56.9303 102.488 54.0713 107.107 52.9781C111.81 52.0531 113.322 54.3235 113.322 54.3235Z" fill="#282828"/>
<path d="M107.527 63.0693C108.501 63.0693 109.291 62.2787 109.291 61.3035C109.291 60.3282 108.501 59.5376 107.527 59.5376C106.553 59.5376 105.764 60.3282 105.764 61.3035C105.764 62.2787 106.553 63.0693 107.527 63.0693Z" fill="#282828"/>
<path d="M124.24 63.0693C125.214 63.0693 126.003 62.2787 126.003 61.3035C126.003 60.3282 125.214 59.5376 124.24 59.5376C123.266 59.5376 122.476 60.3282 122.476 61.3035C122.476 62.2787 123.266 63.0693 124.24 63.0693Z" fill="#282828"/>
<path d="M108.115 71.31H123.568C123.568 71.31 122.476 75.5144 115.505 75.5144C110.131 75.5144 108.115 71.31 108.115 71.31Z" fill="white"/>
<path d="M97.1136 59.4535C97.1136 59.4535 105.512 48.1016 103.58 36.5815C103.58 36.5815 97.3655 39.6927 95.7699 47.8493C94.0903 55.9218 97.1136 59.4535 97.1136 59.4535Z" fill="#282828"/>
<path d="M135.745 59.1172C135.745 59.1172 126.003 47.3448 127.935 35.8246C127.935 35.8246 134.653 39.6927 136.333 47.8493C137.929 55.9218 135.745 59.1172 135.745 59.1172Z" fill="#282828"/>
<path d="M97.8694 41.1222C97.8694 41.1222 107.527 54.0719 137.005 52.0537C137.005 52.0537 133.645 33.5543 119.369 31.7043C119.285 31.7884 102.824 29.7703 97.8694 41.1222Z" fill="#282828"/>
<path d="M70.9945 242.514C70.5746 243.187 95.517 133.788 88.1267 135.47C87.4548 135.638 74.4377 136.815 72.5062 140.767C66.8794 152.119 62.9323 241.673 62.9323 241.673L70.9945 242.514Z" fill="#FFB1A5"/>
<path d="M62.9332 241.673C62.9332 241.673 58.902 260.341 74.1027 262.443C75.1105 262.611 76.0343 262.023 76.3702 261.014L76.4542 260.846C76.7901 259.752 76.2862 258.659 75.2784 258.239C72.759 257.146 68.9798 254.287 70.8274 247.98C70.8274 247.98 73.0109 247.728 74.2706 251.848C74.6066 252.941 75.7823 253.446 76.7901 252.941C77.4619 252.605 77.7979 251.848 77.7139 251.175C77.378 248.316 75.8663 241.337 70.3235 239.487L62.9332 241.673Z" fill="#FFB1A5"/>
<path d="M68.056 167.003C68.056 167.003 82.4168 187.268 82.5008 186.848C82.5848 186.427 87.5397 158.342 87.5397 158.342L70.0716 150.774L68.056 167.003Z" fill="#F3978E"/>
<path d="M107.947 101.498C108.535 101.498 72.423 102.17 65.7885 147.831L86.5319 151.026L90.731 185.502H148.678L160.184 121.763C160.184 121.763 152.037 107.973 128.187 101.161L107.947 101.498Z" fill="#00BBC7"/>
<path d="M90.3111 107.048C90.3111 107.048 95.4339 113.859 116.345 113.859C137.089 113.859 142.38 106.711 142.38 106.711C142.38 106.711 130.118 99.9001 115.925 97.6297C116.009 97.6297 103.328 99.9001 90.3111 107.048Z" fill="#FFB1A5"/>
<path d="M161.443 251.848V343H206.541L209.984 251.848H161.443Z" fill="#005683"/>
<path d="M259.198 251.848V343H214.1L210.656 251.848H259.198Z" fill="#005683"/>
<path d="M234.591 251.848H188.065V283.549H234.591V251.848Z" fill="#005683"/>
<path d="M287.667 172.3C290.439 203.161 287.499 225.697 288.339 282.54L261.465 283.634L257.434 177.262L287.667 172.3Z" fill="#FFB1A5"/>
<path d="M260.793 196.35C260.793 196.35 277.421 194.836 288.843 187.268L288.507 180.625L260.793 184.409V196.35Z" fill="#F3978E"/>
<path d="M234.087 101.161C234.087 101.161 286.995 114.447 296.569 181.634C296.569 181.634 270.703 192.902 244.753 188.025L250.547 165.573L234.087 101.161Z" fill="#1F1F3E"/>
<path d="M76.1182 129.079L115.505 175.664L103.496 209.636C103.496 209.636 73.5988 168.012 60.1618 135.806L76.1182 129.079Z" fill="#FFB1A5"/>
<path d="M77.3779 130.761C77.3779 130.761 63.521 138.581 60.0778 135.722C53.9472 130.761 48.8243 112.682 48.8243 112.682C48.8243 112.682 74.6905 102.927 74.4386 103.264C74.1867 103.684 77.3779 130.761 77.3779 130.761Z" fill="#FFB1A5"/>
<path d="M77.3779 130.761C77.126 129.331 82.5008 114.363 84.3484 108.729C84.7683 107.384 83.8445 105.87 82.4168 105.618C81.493 105.45 79.8974 105.534 79.2255 106.964L72.7589 118.063L77.3779 130.761Z" fill="#FFB1A5"/>
<path d="M76.958 114.531L72.507 92.3321C72.2551 90.8185 70.7434 89.8095 69.3157 90.1458C68.056 90.3981 67.2162 91.4912 67.3842 92.8367L69.3157 109.318L76.958 114.531Z" fill="#FFB1A5"/>
<path d="M68.056 106.375L62.0093 90.5663C61.5055 89.2209 59.9098 88.38 58.5661 88.8845C57.3904 89.305 56.7185 90.4822 56.9705 91.7435L61.4215 110.075L68.056 106.375Z" fill="#FFB1A5"/>
<path d="M61.5895 111L53.9472 95.4434C53.2753 94.0139 51.5117 93.3412 50.084 93.9298C48.7403 94.5184 48.1524 96.032 48.7403 97.4615L54.8709 112.177L61.5895 111Z" fill="#FFB1A5"/>
<path d="M48.8243 112.682L42.8616 103.18C42.3577 102.086 42.8616 100.825 43.8694 100.321C44.8772 99.816 46.2209 100.236 46.8927 101.161L54.787 112.093L48.8243 112.682Z" fill="#FFB1A5"/>
<path d="M75.6983 112.85C75.6983 112.85 66.7123 111.925 65.7885 123.949" stroke="#282828" stroke-width="1.5317" stroke-miterlimit="10" stroke-linecap="round" stroke-linejoin="round"/>
<path d="M95.4339 193.743C95.4339 193.743 102.824 219.39 117.605 216.026C132.386 212.579 155.397 181.046 155.397 181.046L150.274 127.145L108.871 178.187L95.4339 193.743Z" fill="#FFB1A5"/>
<path d="M121.636 162.294C121.636 162.294 135.577 183.4 147.586 190.884L155.397 181.046L125.247 157.753L121.636 162.294Z" fill="#F3978E"/>
<path d="M182.858 99.9842C182.858 99.9842 141.792 109.234 119.956 156.996C119.956 156.996 133.142 176.925 154.389 185.839L168.582 168.432L182.858 99.9842Z" fill="#1F1F3E"/>
<path d="M182.858 99.816C166.818 108.057 156.74 118.988 156.74 118.988L159.932 258.659H260.961L260.625 119.745C260.625 119.745 247.86 107.3 234.087 101.161C222.33 95.9479 194.196 94.0139 182.858 99.816Z" fill="#1F1F3E"/>
<path d="M230.644 167.844C222.918 167.844 216.619 161.537 216.619 153.801V139.758H244.753V153.801C244.669 161.537 238.37 167.844 230.644 167.844Z" stroke="#282828" stroke-width="1.3968" stroke-miterlimit="10" stroke-linecap="round" stroke-linejoin="round"/>
<path d="M260.793 188.613L262.053 142.869" stroke="#282828" stroke-width="1.3968" stroke-miterlimit="10" stroke-linecap="round" stroke-linejoin="round"/>
<path d="M158.252 180.961L156.068 141.356" stroke="#282828" stroke-width="1.3968" stroke-miterlimit="10" stroke-linecap="round" stroke-linejoin="round"/>
<path d="M184.034 48.8584L179.835 28.0044C179.583 26.3227 178.911 23.7159 179.751 21.1933C181.095 17.157 185.966 9.25269 194.364 12.8685L196.212 21.1092C196.212 21.1092 187.477 22.875 184.034 34.227V48.8584Z" fill="#282828"/>
<path d="M193.692 17.157C193.524 19.9319 191.089 31.8725 182.607 36.2451C182.607 36.2451 175.216 20.2683 193.692 17.157Z" fill="#282828"/>
<path d="M223.505 96.032V60.6308H190.921V96.032L181.179 100.489C181.179 100.489 183.446 115.204 207.549 115.541C231.652 115.877 234.087 101.246 234.087 101.246L223.505 96.032Z" fill="#FFB1A5"/>
<path d="M194.364 12.8685C194.364 12.8685 200.327 -2.94014 218.803 5.46871C229.972 10.5981 233.079 17.4093 234.423 22.2023C234.843 23.8 235.011 26.3227 234.927 27.8362L230.476 48.8584L213.008 19.7638L196.128 21.1092L194.364 12.8685Z" fill="#282828"/>
<path d="M230.476 48.8584C230.476 48.8584 232.659 45.3266 237.194 47.0925C241.729 48.7743 239.714 59.874 232.911 61.2194C232.911 61.2194 230.476 61.7239 228.544 60.0422C228.544 60.0422 230.224 51.8856 230.476 48.8584Z" fill="#F3978E"/>
<path d="M236.271 50.9606C236.271 50.9606 232.491 49.6993 229.804 55.3332" stroke="#282828" stroke-width="1.3968" stroke-miterlimit="10" stroke-linecap="round" stroke-linejoin="round"/>
<path d="M184.034 48.8584C184.034 48.8584 181.851 45.3266 177.316 47.0925C172.781 48.7743 174.796 59.874 181.599 61.2194C181.599 61.2194 184.034 61.7239 185.966 60.0422C185.966 60.0422 184.286 51.8856 184.034 48.8584Z" fill="#F3978E"/>
<path d="M178.156 50.9606C178.156 50.9606 181.935 49.6993 184.622 55.3332" stroke="#282828" stroke-width="1.3968" stroke-miterlimit="10" stroke-linecap="round" stroke-linejoin="round"/>
<path d="M230.896 38.3473C230.896 44.9903 230.224 58.949 226.193 67.1897C222.33 74.9258 216.031 79.1302 207.717 79.3825C199.403 79.6348 193.188 76.4394 188.233 66.3488C183.278 56.2582 183.53 38.5155 183.53 38.5155C183.53 38.5155 183.53 14.8025 206.961 14.8025C231.652 14.7184 230.896 38.3473 230.896 38.3473Z" fill="#FFB1A5"/>
<path d="M191.173 71.31C191.173 71.31 193.944 85.1846 205.953 86.7823C219.81 88.6323 223.505 71.6464 223.505 71.6464C223.505 71.6464 217.375 79.3825 207.633 79.3825C196.883 79.3825 191.173 71.31 191.173 71.31Z" fill="#282828"/>
<path d="M205.533 48.2698V53.7355C205.533 53.9878 205.617 54.156 205.701 54.4082C206.037 55.2491 206.961 55.5855 207.801 55.4173L209.649 54.9127" stroke="#282828" stroke-width="1.3968" stroke-miterlimit="10" stroke-linecap="round" stroke-linejoin="round"/>
<path d="M196.463 47.6811C197.623 47.6811 198.563 46.7399 198.563 45.5789C198.563 44.4179 197.623 43.4767 196.463 43.4767C195.304 43.4767 194.364 44.4179 194.364 45.5789C194.364 46.7399 195.304 47.6811 196.463 47.6811Z" fill="#282828"/>
<path d="M216.451 47.6811C217.611 47.6811 218.551 46.7399 218.551 45.5789C218.551 44.4179 217.611 43.4767 216.451 43.4767C215.291 43.4767 214.351 44.4179 214.351 45.5789C214.351 46.7399 215.291 47.6811 216.451 47.6811Z" fill="#282828"/>
<path d="M210.992 34.9838L225.353 38.6837C225.353 38.6837 224.681 34.6474 218.803 33.2179C213.008 31.7043 210.992 34.9838 210.992 34.9838Z" fill="#282828"/>
<path d="M202.09 34.9838L187.729 38.6837C187.729 38.6837 188.401 34.6474 194.28 33.2179C200.159 31.7043 202.09 34.9838 202.09 34.9838Z" fill="#282828"/>
<path d="M199.235 59.2854C199.235 59.2854 201.334 60.883 206.961 60.883C212 60.883 215.191 59.2854 215.191 59.2854" stroke="#282828" stroke-width="1.3968" stroke-miterlimit="10" stroke-linecap="round" stroke-linejoin="round"/>
<path d="M195.876 55.3332C200.885 55.3332 204.946 51.2672 204.946 46.2516C204.946 41.236 200.885 37.1701 195.876 37.1701C190.866 37.1701 186.806 41.236 186.806 46.2516C186.806 51.2672 190.866 55.3332 195.876 55.3332Z" stroke="white" stroke-width="1.9514" stroke-miterlimit="10"/>
<path d="M218.215 55.3332C223.224 55.3332 227.285 51.2672 227.285 46.2516C227.285 41.236 223.224 37.1701 218.215 37.1701C213.205 37.1701 209.145 41.236 209.145 46.2516C209.145 51.2672 213.205 55.3332 218.215 55.3332Z" stroke="white" stroke-width="1.9514" stroke-miterlimit="10"/>
<path d="M204.946 46.2516C204.946 46.2516 207.129 44.2335 209.061 46.2516" stroke="white" stroke-width="1.9514" stroke-miterlimit="10"/>
<path d="M186.806 46.2516L183.782 46.1675" stroke="white" stroke-width="1.9514" stroke-miterlimit="10"/>
<path d="M227.285 46.2516L230.644 46.1675" stroke="white" stroke-width="1.9514" stroke-miterlimit="10"/>
<path d="M191.173 17.7456C191.173 17.7456 195.54 30.1066 215.191 29.7703C228.544 29.518 231.736 39.1882 231.736 39.1882C231.736 39.1882 229.384 17.5774 228.796 17.7456C228.208 17.9138 208.473 12.448 208.473 12.448L191.173 17.7456Z" fill="#282828"/>
</g>
</svg>
