<svg width="541" height="337" viewBox="0 0 541 337" fill="none" xmlns="http://www.w3.org/2000/svg">
<path d="M209.358 50.4531H168.711C164.764 50.4531 161.572 47.2577 161.572 43.3056V5.46575C161.572 2.43857 164.008 0 167.031 0H209.442C212.465 0 214.9 2.43857 214.9 5.46575V45.0714C214.732 48.0145 212.381 50.4531 209.358 50.4531Z" fill="#56DFED"/>
<path d="M200.54 28.9265L197.516 25.8993C197.012 25.3107 196.257 24.9743 195.585 24.9743C194.913 24.9743 194.157 25.3107 193.653 25.8152L191.89 27.5811C191.806 27.497 191.638 27.497 191.554 27.4129C191.302 27.3288 191.134 27.2447 191.05 27.1606C189.454 26.1516 187.942 24.8061 186.515 23.0403C185.843 22.1994 185.339 21.4426 185.087 20.854C185.507 20.4335 185.927 20.0131 186.263 19.6767C186.431 19.5086 186.599 19.3404 186.767 19.1722C187.355 18.5836 187.691 17.9109 187.691 17.1541C187.691 16.4814 187.355 15.7246 186.767 15.136L185.255 13.6224C185.087 13.4542 184.919 13.286 184.751 13.1178C184.415 12.7815 184.079 12.4451 183.743 12.1088C183.24 11.6042 182.484 11.2679 181.812 11.2679C181.14 11.2679 180.468 11.5201 179.88 12.1088L177.949 14.0428C177.277 14.7155 176.773 15.6405 176.689 16.7336C176.605 18.3313 177.025 19.8449 177.361 20.854C178.201 23.3766 179.544 25.5629 181.56 27.9174C183.995 30.7764 186.851 33.0468 190.21 34.7286C191.47 35.3172 193.149 35.9899 195.081 36.1581C195.165 36.1581 195.333 36.1581 195.501 36.1581C196.761 36.1581 197.852 35.6536 198.776 34.7286C198.776 34.7286 198.776 34.7286 198.86 34.6445C199.112 34.3081 199.448 33.9718 199.868 33.6354C200.12 33.3832 200.372 33.1309 200.54 32.9627C201.715 31.7014 201.715 30.1037 200.54 28.9265ZM199.364 31.7855C199.112 32.0377 198.944 32.2059 198.692 32.4582C198.272 32.7945 198.02 33.1309 197.6 33.5513C197.096 34.0559 196.425 34.3922 195.669 34.3922C195.585 34.3922 195.501 34.3922 195.417 34.3922C193.821 34.3081 192.309 33.6354 191.218 33.1309C188.11 31.6173 185.423 29.5151 183.156 26.8243C181.308 24.638 180.048 22.4517 179.208 20.2654C178.705 19.004 178.453 17.9109 178.537 16.9018C178.621 16.3132 178.789 15.7246 179.292 15.3041L181.14 13.4542C181.308 13.286 181.56 13.0337 181.896 13.0337C182.232 13.0337 182.4 13.2019 182.652 13.4542C182.988 13.7905 183.323 14.1269 183.659 14.4632C183.827 14.6314 183.995 14.8837 184.163 14.9678L185.675 16.4814C185.843 16.6495 186.095 16.9859 186.095 17.2382C186.095 17.5745 185.843 17.8268 185.675 17.995C185.507 18.1631 185.339 18.3313 185.171 18.4995C184.667 19.004 184.247 19.4245 183.827 19.8449C183.827 19.8449 183.827 19.8449 183.743 19.929C183.24 20.4335 183.323 20.9381 183.407 21.2744V21.3585C183.827 22.3676 184.415 23.2085 185.171 24.3016C186.683 26.2356 188.278 27.6651 190.126 28.8424C190.378 29.0106 190.63 29.0946 190.798 29.2628C191.05 29.3469 191.218 29.431 191.302 29.5151L191.386 29.5992C191.89 29.8514 192.477 29.7674 192.897 29.3469L194.829 27.4129C194.997 27.2447 195.249 26.9924 195.585 26.9924C195.837 26.9924 196.089 27.2447 196.257 27.4129L199.28 30.4401C199.784 30.6923 199.784 31.281 199.364 31.7855Z" fill="white"/>
<path d="M533.526 196.431H434.932C432.16 196.431 429.893 194.16 429.893 191.385V100.149C429.893 97.3745 432.16 95.1041 434.932 95.1041H533.526C536.297 95.1041 538.564 97.3745 538.564 100.149V191.385C538.564 194.16 536.297 196.431 533.526 196.431Z" fill="#EDEDED"/>
<path d="M533.526 196.431H434.932C432.16 196.431 429.893 194.16 429.893 191.385V100.149C429.893 97.3745 432.16 95.1041 434.932 95.1041H533.526C536.297 95.1041 538.564 97.3745 538.564 100.149V191.385C538.564 194.16 536.297 196.431 533.526 196.431Z" stroke="#DED8D5" stroke-width="1.9678" stroke-miterlimit="10"/>
<path d="M458.782 170.111H510.011C512.782 170.111 515.05 167.841 515.05 165.066V123.022C515.05 120.247 512.782 117.976 510.011 117.976H458.782C456.011 117.976 453.743 120.247 453.743 123.022V165.066C453.743 167.841 456.011 170.111 458.782 170.111Z" fill="#1F1F3E"/>
<path d="M498.421 152.705H474.403H470.12V133.701H498.421V138.41V152.705Z" stroke="white" stroke-width="1.6466" stroke-miterlimit="10" stroke-linecap="round" stroke-linejoin="round"/>
<path d="M470.12 133.701L484.229 144.885L498.421 133.701" stroke="white" stroke-width="1.6466" stroke-miterlimit="10" stroke-linecap="round" stroke-linejoin="round"/>
<path d="M99.762 272.867H5.78694C3.09953 272.867 1 270.681 1 268.074V186.004C1 183.313 3.18351 181.211 5.78694 181.211H99.762C102.449 181.211 104.549 183.397 104.549 186.004V268.074C104.549 270.765 102.449 272.867 99.762 272.867Z" fill="#EDEDED"/>
<path d="M99.762 272.867H5.78694C3.09953 272.867 1 270.681 1 268.074V186.004C1 183.313 3.18351 181.211 5.78694 181.211H99.762C102.449 181.211 104.549 183.397 104.549 186.004V268.074C104.549 270.765 102.449 272.867 99.762 272.867Z" stroke="#DED8D5" stroke-width="1.9678" stroke-miterlimit="10"/>
<path d="M76.9191 255.209H28.2099C25.1026 255.209 22.6672 252.686 22.6672 249.659V202.485C22.6672 199.374 25.1866 196.935 28.2099 196.935H76.9191C80.0264 196.935 82.4619 199.458 82.4619 202.485V249.659C82.4619 252.686 80.0264 255.209 76.9191 255.209Z" fill="#F75B19"/>
<path d="M40.8911 214.594C34.3406 221.153 34.3406 232 40.8911 238.559C47.4417 245.118 58.2753 245.118 64.8258 238.559C71.3763 232 71.3763 221.153 64.8258 214.594C58.2753 208.035 47.5256 208.035 40.8911 214.594ZM64.8258 217.032H59.451C58.9471 215.351 58.1913 213.669 57.3515 211.903C60.3748 212.912 62.9782 214.678 64.8258 217.032ZM46.6858 225.609C46.6858 223.423 46.9378 221.237 47.5256 219.051H58.3592C58.8631 221.237 59.1991 223.423 59.1991 225.609H46.6858ZM59.0311 227.628C58.8631 229.814 58.5272 232 57.8553 234.187H47.9456C47.3577 232 46.9378 229.814 46.7698 227.628H59.0311ZM52.9004 211.314C53.7403 211.314 54.4961 211.399 55.2519 211.483C56.2597 213.333 57.0995 215.182 57.6874 217.032H48.0295C48.6174 215.182 49.4572 213.333 50.465 211.483C51.3048 211.399 52.0606 211.314 52.9004 211.314ZM48.4494 211.987C47.6096 213.669 46.8538 215.351 46.3499 217.117H40.9751C42.9067 214.678 45.5101 212.912 48.4494 211.987ZM39.6314 219.051H45.846C45.3421 221.237 45.0062 223.423 45.0062 225.609H37.6998C37.7838 223.255 38.5396 220.985 39.6314 219.051ZM39.6314 234.187C38.5396 232.252 37.7838 229.982 37.6998 227.628H45.0062C45.0902 229.814 45.4261 232 46.014 234.187H39.6314ZM40.9751 236.205H46.6018C47.1897 237.886 47.8616 239.652 48.7014 241.334C45.5941 240.409 42.9067 238.643 40.9751 236.205ZM52.9004 241.923C52.2286 241.923 51.5567 241.839 50.8849 241.754C49.9611 239.905 49.1213 237.97 48.5334 236.121H57.2675C56.5956 237.97 55.8398 239.905 54.916 241.754C54.2441 241.839 53.5723 241.923 52.9004 241.923ZM57.0995 241.334C57.9393 239.652 58.6112 237.886 59.1991 236.205H64.8258C62.8942 238.643 60.2068 240.409 57.0995 241.334ZM66.1695 234.187H59.7869C60.3748 232 60.7107 229.814 60.7947 227.628H68.1851C68.0171 229.982 67.3452 232.252 66.1695 234.187ZM68.1851 225.609H60.8787C60.8787 223.423 60.5428 221.237 60.0389 219.051H66.2535C67.3452 220.985 68.0171 223.255 68.1851 225.609Z" fill="white"/>
</svg>
