<svg width="535" height="253" viewBox="0 0 535 253" fill="none" xmlns="http://www.w3.org/2000/svg">
<path d="M89.0591 7.21897H3.90205C2.13844 7.21897 0.710754 5.78947 0.710754 4.02361C0.710754 2.25775 2.13844 0.828247 3.90205 0.828247H89.0591C90.8227 0.828247 92.2504 2.25775 92.2504 4.02361C92.1664 5.78947 90.7388 7.21897 89.0591 7.21897Z" fill="#1F1F3E"/>
<path d="M502.919 252.421H497.88C496.537 252.421 495.445 251.328 495.445 249.983V245.274C495.445 243.928 496.537 242.835 497.88 242.835H502.919C504.263 242.835 505.355 243.928 505.355 245.274V249.983C505.271 251.328 504.179 252.421 502.919 252.421Z" fill="#1F1F3E"/>
<path d="M528.365 146.026H429.771C427 146.026 424.733 143.876 424.733 141.249V54.8803C424.733 52.2534 427 50.1041 429.771 50.1041H528.365C531.137 50.1041 533.404 52.2534 533.404 54.8803V141.249C533.404 143.876 531.137 146.026 528.365 146.026Z" fill="#EDEDED"/>
<path d="M528.365 151.431H429.771C427 151.431 424.733 149.16 424.733 146.385V55.1494C424.733 52.3745 427 50.1041 429.771 50.1041H528.365C531.137 50.1041 533.404 52.3745 533.404 55.1494V146.385C533.404 149.16 531.137 151.431 528.365 151.431Z" stroke="#DED8D5" stroke-width="1.9678" stroke-miterlimit="10"/>
<path d="M453.622 125.111H504.851C507.622 125.111 509.89 122.841 509.89 120.066V78.0215C509.89 75.2466 507.622 72.9762 504.851 72.9762H453.622C450.851 72.9762 448.583 75.2466 448.583 78.0215V120.066C448.583 122.841 450.851 125.111 453.622 125.111Z" fill="#1F1F3E"/>
<path d="M493.261 107.705H469.243H464.96V88.7007H493.261V93.4097V107.705Z" stroke="white" stroke-width="1.6466" stroke-miterlimit="10" stroke-linecap="round" stroke-linejoin="round"/>
<path d="M464.96 88.7007L479.068 99.8845L493.261 88.7007" stroke="white" stroke-width="1.6466" stroke-miterlimit="10" stroke-linecap="round" stroke-linejoin="round"/>
</svg>
