<svg width="519" height="320" viewBox="0 0 519 320" fill="none" xmlns="http://www.w3.org/2000/svg">
<path d="M515.809 260.506H474.49C472.726 260.506 471.299 259.077 471.299 257.311C471.299 255.545 472.726 254.115 474.49 254.115H515.809C517.572 254.115 519 255.545 519 257.311C519 259.077 517.572 260.506 515.809 260.506Z" fill="#56DFED"/>
<path d="M8.14158 319.536H3.1027C1.759 319.536 0.667236 318.443 0.667236 317.098V312.389C0.667236 311.043 1.759 309.95 3.1027 309.95H8.14158C9.48528 309.95 10.577 311.043 10.577 312.389V317.098C10.577 318.443 9.48528 319.536 8.14158 319.536Z" fill="#FFB1A5"/>
<path d="M188.197 50.4531H147.551C143.603 50.4531 140.412 47.2577 140.412 43.3056V5.46575C140.412 2.43857 142.848 0 145.871 0H188.281C191.305 0 193.74 2.43857 193.74 5.46575V45.0714C193.572 48.0145 191.221 50.4531 188.197 50.4531Z" fill="#56DFED"/>
<path d="M179.379 28.9264L176.356 25.8993C175.852 25.3106 175.096 24.9743 174.425 24.9743C173.753 24.9743 172.997 25.3106 172.493 25.8152L170.729 27.581C170.645 27.4969 170.477 27.4969 170.393 27.4128C170.142 27.3288 169.974 27.2447 169.89 27.1606C168.294 26.1515 166.782 24.8061 165.355 23.0402C164.683 22.1994 164.179 21.4426 163.927 20.8539C164.347 20.4335 164.767 20.0131 165.103 19.6767C165.271 19.5085 165.439 19.3404 165.607 19.1722C166.194 18.5836 166.53 17.9108 166.53 17.154C166.53 16.4813 166.194 15.7245 165.607 15.1359L164.095 13.6223C163.927 13.4542 163.759 13.286 163.591 13.1178C163.255 12.7814 162.919 12.4451 162.583 12.1087C162.079 11.6042 161.323 11.2679 160.652 11.2679C159.98 11.2679 159.308 11.5201 158.72 12.1087L156.788 14.0428C156.117 14.7155 155.613 15.6405 155.529 16.7336C155.445 18.3313 155.865 19.8449 156.201 20.8539C157.04 23.3766 158.384 25.5629 160.4 27.9174C162.835 30.7764 165.691 33.0468 169.05 34.7285C170.309 35.3172 171.989 35.9899 173.921 36.1581C174.005 36.1581 174.173 36.1581 174.341 36.1581C175.6 36.1581 176.692 35.6535 177.616 34.7285C177.616 34.7285 177.616 34.7286 177.7 34.6445C177.952 34.3081 178.288 33.9718 178.708 33.6354C178.96 33.3831 179.212 33.1309 179.379 32.9627C180.555 31.7014 180.555 30.1037 179.379 28.9264ZM178.204 31.7855C177.952 32.0377 177.784 32.2059 177.532 32.4582C177.112 32.7945 176.86 33.1309 176.44 33.5513C175.936 34.0558 175.264 34.3922 174.509 34.3922C174.425 34.3922 174.341 34.3922 174.257 34.3922C172.661 34.3081 171.149 33.6354 170.058 33.1309C166.95 31.6173 164.263 29.5151 161.995 26.8242C160.148 24.6379 158.888 22.4516 158.048 20.2653C157.544 19.004 157.292 17.9108 157.376 16.9018C157.46 16.3132 157.628 15.7245 158.132 15.3041L159.98 13.4542C160.148 13.286 160.4 13.0337 160.736 13.0337C161.072 13.0337 161.24 13.2019 161.491 13.4542C161.827 13.7905 162.163 14.1269 162.499 14.4632C162.667 14.6314 162.835 14.8837 163.003 14.9677L164.515 16.4813C164.683 16.6495 164.935 16.9859 164.935 17.2381C164.935 17.5745 164.683 17.8268 164.515 17.9949C164.347 18.1631 164.179 18.3313 164.011 18.4995C163.507 19.004 163.087 19.4244 162.667 19.8449C162.667 19.8449 162.667 19.8449 162.583 19.929C162.079 20.4335 162.163 20.938 162.247 21.2744V21.3585C162.667 22.3675 163.255 23.2084 164.011 24.3016C165.523 26.2356 167.118 27.6651 168.966 28.8424C169.218 29.0105 169.47 29.0946 169.638 29.2628C169.89 29.3469 170.058 29.431 170.142 29.5151L170.226 29.5992C170.729 29.8514 171.317 29.7673 171.737 29.3469L173.669 27.4128C173.837 27.2447 174.089 26.9924 174.425 26.9924C174.677 26.9924 174.928 27.2447 175.096 27.4128L178.12 30.44C178.624 30.6923 178.624 31.2809 178.204 31.7855Z" fill="white"/>
</svg>
