<svg width="540" height="338" viewBox="0 0 540 338" fill="none" xmlns="http://www.w3.org/2000/svg">
<path d="M58.7029 103.765H478.022" stroke="#DED8D5" stroke-width="1.9678" stroke-miterlimit="10"/>
<path d="M472.563 336.018H64.1617C61.1383 336.018 58.7029 333.579 58.7029 330.552V81.7341C58.7029 78.7069 61.1383 76.2683 64.1617 76.2683H472.563C475.586 76.2683 478.022 78.7069 478.022 81.7341V330.552C478.022 333.579 475.586 336.018 472.563 336.018Z" stroke="#DED8D5" stroke-width="1.9678" stroke-miterlimit="10"/>
<path d="M82.4696 94.0951C84.6031 94.0951 86.3327 92.3633 86.3327 90.227C86.3327 88.0907 84.6031 86.3589 82.4696 86.3589C80.336 86.3589 78.6064 88.0907 78.6064 90.227C78.6064 92.3633 80.336 94.0951 82.4696 94.0951Z" fill="#FFB1A5"/>
<path d="M97.3343 94.0951C99.4679 94.0951 101.197 92.3633 101.197 90.227C101.197 88.0907 99.4679 86.3589 97.3343 86.3589C95.2008 86.3589 93.4712 88.0907 93.4712 90.227C93.4712 92.3633 95.2008 94.0951 97.3343 94.0951Z" fill="#EAD254"/>
<path d="M112.283 94.0951C114.416 94.0951 116.146 92.3633 116.146 90.227C116.146 88.0907 114.416 86.3589 112.283 86.3589C110.149 86.3589 108.42 88.0907 108.42 90.227C108.42 92.3633 110.149 94.0951 112.283 94.0951Z" fill="#00857B"/>
<mask id="mask0" mask-type="alpha" maskUnits="userSpaceOnUse" x="74" y="56" width="384" height="278">
<rect x="74.1602" y="56" width="383" height="278" fill="#C4C4C4"/>
</mask>
<g mask="url(#mask0)">
<path d="M385.306 241.586L354.653 237.466L354.905 240.493L328.703 244.025C328.703 244.025 311.823 286.49 326.687 379.828H348.019L355.661 285.228H358.348L365.739 379.828H387.154C402.103 286.49 385.306 241.586 385.306 241.586Z" fill="#8E716C"/>
<path d="M345.919 285.144H368.174" stroke="#282828" stroke-width="1.2333" stroke-miterlimit="10" stroke-linecap="round" stroke-linejoin="round"/>
<path d="M403.278 196.767C400.675 192.563 385.894 192.731 385.138 192.647C381.191 192.142 387.658 223.928 395.972 251.677C397.568 256.974 403.362 259.749 408.485 257.563C408.569 257.563 408.569 257.479 408.653 257.479C412.684 255.797 414.952 251.509 414.196 247.136C410.249 226.282 406.302 201.644 403.278 196.767Z" fill="#FFB1A5"/>
<path d="M406.722 208.287L387.91 215.603L386.146 206.605L405.63 201.812L406.722 208.287Z" fill="#F3978E"/>
<path d="M410.333 226.114C410.333 226.114 401.431 238.055 401.851 237.55C402.27 236.961 408.821 218.21 408.821 218.21L410.333 226.114Z" fill="#F3978E"/>
<path d="M423.014 210.053L397.484 243.184C394.124 247.557 395.216 253.863 399.835 256.806C404.454 259.833 410.585 258.236 413.188 253.359L434.435 214.089L423.014 210.053Z" fill="#FFB1A5"/>
<path d="M442.916 211.711C444.699 206.187 441.671 200.262 436.154 198.478C430.637 196.693 424.719 199.725 422.937 205.249C421.155 210.773 424.183 216.698 429.7 218.482C435.217 220.267 441.134 217.235 442.916 211.711Z" fill="#FFB1A5"/>
<path d="M440.566 202.149C440.566 202.149 443.421 199.122 438.299 197.019C433.176 194.917 426.877 195.422 422.846 205.176L440.566 202.149Z" fill="#FFB1A5"/>
<path d="M445.857 181.211L456.522 185.836C457.11 186.088 457.362 186.761 457.026 187.433L442.917 213.753C442.582 214.342 441.826 214.678 441.238 214.426L430.572 209.801C429.984 209.549 429.732 208.876 430.068 208.203L444.177 181.883C444.513 181.295 445.269 180.958 445.857 181.211Z" fill="#372F5F"/>
<path d="M444.849 180.79L455.515 185.415C456.103 185.667 456.354 186.34 456.019 187.013L441.91 213.333C441.574 213.921 440.818 214.258 440.23 214.005L429.564 209.38C428.977 209.128 428.725 208.455 429.06 207.783L443.169 181.463C443.505 180.79 444.261 180.538 444.849 180.79Z" fill="#261B43"/>
<path d="M443.673 183.481L453.079 187.517L441.574 208.96L432.168 204.924L443.673 183.481Z" fill="#E6E6E6"/>
<path d="M453.079 187.517L432.168 204.924L443.673 183.481L453.079 187.517Z" fill="white"/>
<path d="M435.275 196.179C435.275 196.179 437.627 196.683 439.81 197.86C440.734 198.365 441.238 199.458 440.986 200.551C440.734 201.476 439.978 202.233 438.97 202.317L433.428 202.99C433.428 202.99 430.488 208.035 426.709 208.54L430.152 199.71L435.275 196.179Z" fill="#FFB1A5"/>
<path d="M364.311 155.059C363.723 155.059 403.698 160.609 410.333 206.353L389.589 209.549L385.39 244.025H327.443L315.938 180.286C315.938 180.286 328.787 161.87 352.638 155.059H364.311V155.059Z" fill="#7195F2"/>
<path d="M389.505 209.549L391.353 189.535" stroke="#282828" stroke-width="1.2333" stroke-miterlimit="10" stroke-linecap="round" stroke-linejoin="round"/>
<path d="M368.09 155.732V139.839H349.53V155.9C348.607 156.152 347.011 156.741 344.575 157.918L359.104 166.579L373.885 157.918C373.801 157.918 371.449 156.573 368.09 155.732Z" fill="#FFB1A5"/>
<path d="M349.362 141.773C349.362 141.773 352.722 150.687 361.624 149.846C369.77 149.173 368.51 136.812 368.51 136.812L349.362 141.773Z" fill="#282828"/>
<path d="M341.216 130.001C338.277 132.608 331.81 122.601 334.582 119.826C337.437 117.051 339.536 121.424 339.536 121.424L340.796 124.451L341.72 128.487L341.972 129.58L341.216 130.001Z" fill="#F3978E"/>
<path d="M335.925 123.358C335.925 123.358 338.109 122.349 340.124 125.544" stroke="#282828" stroke-width="0.9928" stroke-miterlimit="10" stroke-linecap="round" stroke-linejoin="round"/>
<path d="M375.648 129.664C378.336 132.523 385.642 123.106 383.123 120.078C380.519 117.051 378.084 121.256 378.084 121.256L376.572 124.115L375.312 128.067L374.977 129.076L375.648 129.664Z" fill="#F3978E"/>
<path d="M381.443 123.526C381.443 123.526 379.344 122.349 377.076 125.376" stroke="#282828" stroke-width="0.9928" stroke-miterlimit="10" stroke-linecap="round" stroke-linejoin="round"/>
<path d="M336.093 110.24C336.093 123.526 346.171 129.833 358.684 129.833C371.197 129.833 381.275 123.526 381.275 110.24C381.275 96.954 371.197 87.9565 358.684 87.9565C346.171 87.9565 336.093 96.954 336.093 110.24Z" fill="#282828"/>
<path d="M339.2 111.165C339.2 119.322 340.376 126.385 341.468 131.346C342.56 136.223 345.751 139.671 350.202 142.362L351.042 142.866C355.745 145.809 361.875 145.809 366.662 143.035C371.533 140.176 374.893 136.476 375.984 131.262C377.916 121.76 378.084 111.165 378.084 111.165C378.084 111.165 379.931 90.5633 358.936 90.9838C337.941 91.3201 339.2 111.165 339.2 111.165Z" fill="#FFB1A5"/>
<path d="M357.341 122.853V125.712C357.341 125.88 357.341 126.049 357.425 126.217C357.677 126.805 358.348 127.058 358.936 126.89L360.28 126.553" stroke="#282828" stroke-width="1.2316" stroke-miterlimit="10" stroke-linecap="round" stroke-linejoin="round"/>
<path d="M353.981 111.838L343.568 114.276C343.568 114.276 344.072 111.585 348.271 110.66C352.638 109.735 353.981 111.838 353.981 111.838Z" fill="#282828"/>
<path d="M363.303 111.838L373.381 114.276C373.381 114.276 372.961 111.585 368.846 110.66C364.647 109.735 363.303 111.838 363.303 111.838Z" fill="#282828"/>
<path d="M350.034 121.256C351.008 121.256 351.798 120.465 351.798 119.49C351.798 118.514 351.008 117.724 350.034 117.724C349.06 117.724 348.271 118.514 348.271 119.49C348.271 120.465 349.06 121.256 350.034 121.256Z" fill="#282828"/>
<path d="M366.747 121.256C367.721 121.256 368.51 120.465 368.51 119.49C368.51 118.514 367.721 117.724 366.747 117.724C365.773 117.724 364.983 118.514 364.983 119.49C364.983 120.465 365.773 121.256 366.747 121.256Z" fill="#282828"/>
<path d="M351.798 130.253H365.319C365.403 130.253 359.356 137.569 351.798 130.253Z" fill="white"/>
<path d="M349.362 127.646C353.49 127.646 356.837 124.296 356.837 120.162C356.837 116.029 353.49 112.679 349.362 112.679C345.234 112.679 341.888 116.029 341.888 120.162C341.888 124.296 345.234 127.646 349.362 127.646Z" stroke="#C98BD2" stroke-width="1.3423" stroke-miterlimit="10"/>
<path d="M367.67 127.646C371.798 127.646 375.145 124.296 375.145 120.162C375.145 116.029 371.798 112.679 367.67 112.679C363.542 112.679 360.196 116.029 360.196 120.162C360.196 124.296 363.542 127.646 367.67 127.646Z" stroke="#C98BD2" stroke-width="1.3423" stroke-miterlimit="10"/>
<path d="M356.837 120.162C356.837 120.162 358.6 118.481 360.28 120.162" stroke="#C98BD2" stroke-width="1.3423" stroke-miterlimit="10"/>
<path d="M341.804 120.162H339.453" stroke="#C98BD2" stroke-width="1.3423" stroke-miterlimit="10"/>
<path d="M375.145 120.162H377.58" stroke="#C98BD2" stroke-width="1.3423" stroke-miterlimit="10"/>
<path d="M377.832 117.976C377.832 117.976 369.434 106.624 371.365 95.1041C371.365 95.1041 377.58 98.2153 379.176 106.372C380.855 114.444 377.832 117.976 377.832 117.976Z" fill="#282828"/>
<path d="M339.201 118.733C339.201 118.733 348.942 105.867 347.011 94.3473C347.011 94.3473 340.292 98.2154 338.613 106.372C336.933 114.444 339.201 118.733 339.201 118.733Z" fill="#282828"/>
<path d="M377.076 99.6449C377.076 99.6449 366.327 111.417 336.849 109.399C336.849 109.399 341.384 92.0769 355.661 90.227C355.661 90.227 372.121 88.2929 377.076 99.6449Z" fill="#282828"/>
<path d="M376.32 99.9812C384.112 99.9812 390.429 93.6564 390.429 85.8543C390.429 78.0523 384.112 71.7275 376.32 71.7275C368.528 71.7275 362.211 78.0523 362.211 85.8543C362.211 93.6564 368.528 99.9812 376.32 99.9812Z" fill="#282828"/>
<path d="M204.579 241.502L178.376 237.97L178.628 234.943L147.975 239.064C147.975 239.064 131.263 283.967 146.127 377.305H167.459L174.849 282.706H177.537L185.179 377.305H206.594C221.459 283.967 204.579 241.502 204.579 241.502Z" fill="#282828"/>
<path d="M202.479 113.856C198.952 109.651 196.096 104.774 193.661 97.9631C191.058 90.6474 182.575 93.5905 182.575 93.5905C182.575 93.5905 175.521 84.5089 164.855 87.6202C154.19 90.8156 150.495 98.3835 150.327 107.381C150.075 116.378 143.02 117.808 137.561 128.235C127.904 146.65 144.112 162.123 173.673 157.834V157.582C176.613 158.507 180.14 158.843 184.507 158.591C219.947 156.489 216.504 130.421 202.479 113.856Z" fill="#282828"/>
<path d="M190.89 127.478C193.829 130.085 200.296 120.078 197.524 117.303C194.753 114.529 192.569 118.901 192.569 118.901L191.31 121.928L190.386 125.965L190.134 127.058L190.89 127.478Z" fill="#F3978E"/>
<path d="M196.097 120.835C196.097 120.835 193.913 119.826 191.897 123.022" stroke="#282828" stroke-width="0.9928" stroke-miterlimit="10" stroke-linecap="round" stroke-linejoin="round"/>
<path d="M156.457 127.226C153.77 130.085 146.463 120.667 148.983 117.64C151.586 114.613 154.022 118.817 154.022 118.817L155.533 121.676L156.793 125.628L157.129 126.637L156.457 127.226Z" fill="#F3978E"/>
<path d="M150.662 121.003C150.662 121.003 152.762 119.826 155.029 122.853" stroke="#282828" stroke-width="0.9928" stroke-miterlimit="10" stroke-linecap="round" stroke-linejoin="round"/>
<path d="M196.012 107.717C196.012 121.003 185.935 127.31 173.421 127.31C160.908 127.31 150.83 121.003 150.83 107.717C150.83 94.4314 160.908 85.4339 173.421 85.4339C185.935 85.4339 196.012 94.4314 196.012 107.717Z" fill="#282828"/>
<path d="M182.575 137.401H164.016V161.534H182.575V137.401Z" fill="#FFB1A5"/>
<path d="M161.328 135.887C161.328 135.887 166.535 146.23 172.834 147.828C174.513 148.248 176.361 148.08 177.956 147.491C180.392 146.65 183.415 143.035 183.919 139.082L184.171 136.812C184.171 136.896 172.834 143.035 161.328 135.887Z" fill="#282828"/>
<path d="M192.905 108.642C192.905 116.799 191.729 123.862 190.638 128.824C189.546 133.701 186.355 137.148 181.904 139.839L181.064 140.344C176.361 143.287 170.23 143.287 165.443 140.512C160.572 137.653 157.213 133.953 156.121 128.739C154.19 119.237 154.022 108.642 154.022 108.642C154.022 108.642 152.174 88.0406 173.169 88.4611C194.165 88.8815 192.905 108.642 192.905 108.642Z" fill="#FFB1A5"/>
<path d="M171.994 121.508V123.19C171.994 123.358 171.994 123.526 172.078 123.694C172.33 124.283 173.002 124.535 173.589 124.367L174.933 124.031" stroke="#282828" stroke-width="1.2298" stroke-miterlimit="10" stroke-linecap="round" stroke-linejoin="round"/>
<path d="M176.361 110.324L187.53 112.931C187.53 112.931 187.026 110.072 182.491 108.979C177.956 107.886 176.361 110.324 176.361 110.324Z" fill="#282828"/>
<path d="M170.482 110.323L159.145 112.93C159.145 112.93 159.649 110.071 164.268 108.978C168.97 108.053 170.482 110.323 170.482 110.323Z" fill="#282828"/>
<path d="M164.687 119.069C165.661 119.069 166.451 118.279 166.451 117.303C166.451 116.328 165.661 115.538 164.687 115.538C163.713 115.538 162.924 116.328 162.924 117.303C162.924 118.279 163.713 119.069 164.687 119.069Z" fill="#282828"/>
<path d="M181.4 119.069C182.374 119.069 183.163 118.279 183.163 117.303C183.163 116.328 182.374 115.538 181.4 115.538C180.426 115.538 179.636 116.328 179.636 117.303C179.636 118.279 180.426 119.069 181.4 119.069Z" fill="#282828"/>
<path d="M165.275 127.31H180.728C180.728 127.31 179.636 131.514 172.666 131.514C167.291 131.514 165.275 127.31 165.275 127.31Z" fill="white"/>
<path d="M154.274 115.453C154.274 115.453 162.672 104.102 160.74 92.5814C160.74 92.5814 154.526 95.6927 152.93 103.849C151.25 111.922 154.274 115.453 154.274 115.453Z" fill="#282828"/>
<path d="M192.905 115.117C192.905 115.117 183.163 103.345 185.095 91.8246C185.095 91.8246 191.813 95.6927 193.493 103.849C195.089 111.922 192.905 115.117 192.905 115.117Z" fill="#282828"/>
<path d="M155.03 97.1222C155.03 97.1222 164.687 110.072 194.165 108.054C194.165 108.054 190.806 89.5542 176.529 87.7043C176.445 87.7884 159.984 85.7702 155.03 97.1222Z" fill="#282828"/>
<path d="M128.155 298.514C127.735 299.187 152.677 189.788 145.287 191.47C144.615 191.638 131.598 192.815 129.666 196.767C124.04 208.119 120.092 297.673 120.092 297.673L128.155 298.514Z" fill="#FFB1A5"/>
<path d="M120.093 297.673C120.093 297.673 116.062 316.341 131.263 318.443C132.271 318.611 133.194 318.023 133.53 317.014L133.614 316.845C133.95 315.752 133.446 314.659 132.439 314.239C129.919 313.146 126.14 310.287 127.988 303.98C127.988 303.98 130.171 303.728 131.431 307.848C131.767 308.941 132.942 309.446 133.95 308.941C134.622 308.605 134.958 307.848 134.874 307.175C134.538 304.316 133.026 297.337 127.484 295.487L120.093 297.673Z" fill="#FFB1A5"/>
<path d="M125.216 223.003C125.216 223.003 139.577 243.268 139.661 242.848C139.745 242.427 144.7 214.342 144.7 214.342L127.232 206.774L125.216 223.003Z" fill="#F3978E"/>
<path d="M165.107 157.498C165.695 157.498 129.583 158.17 122.949 203.831L143.692 207.026L147.891 241.502H205.838L217.344 177.763C217.344 177.763 209.198 163.973 185.347 157.161L165.107 157.498Z" fill="#00BBC7"/>
<path d="M147.471 163.048C147.471 163.048 152.594 169.859 173.506 169.859C194.249 169.859 199.54 162.711 199.54 162.711C199.54 162.711 187.278 155.9 173.086 153.63C173.17 153.63 160.488 155.9 147.471 163.048Z" fill="#FFB1A5"/>
<path d="M218.603 307.848V399H263.701L267.145 307.848H218.603Z" fill="#005683"/>
<path d="M316.358 307.848V399H271.26L267.817 307.848H316.358Z" fill="#005683"/>
<path d="M291.751 307.848H245.225V339.549H291.751V307.848Z" fill="#005683"/>
<path d="M344.827 228.3C347.599 259.161 344.659 281.697 345.499 338.54L318.625 339.633L314.594 233.262L344.827 228.3Z" fill="#FFB1A5"/>
<path d="M317.953 252.35C317.953 252.35 334.582 250.836 346.003 243.268L345.667 236.625L317.953 240.409V252.35Z" fill="#F3978E"/>
<path d="M291.247 157.161C291.247 157.161 344.156 170.447 353.729 237.634C353.729 237.634 327.863 248.902 301.913 244.025L307.708 221.573L291.247 157.161Z" fill="#1F1F3E"/>
<path d="M133.278 185.079L172.666 231.664L160.656 265.636C160.656 265.636 130.759 224.012 117.322 191.806L133.278 185.079Z" fill="#FFB1A5"/>
<path d="M134.538 186.761C134.538 186.761 120.681 194.581 117.238 191.722C111.107 186.761 105.984 168.682 105.984 168.682C105.984 168.682 131.851 158.927 131.599 159.264C131.347 159.684 134.538 186.761 134.538 186.761Z" fill="#FFB1A5"/>
<path d="M134.538 186.761C134.286 185.331 139.661 170.363 141.509 164.729C141.928 163.384 141.005 161.87 139.577 161.618C138.653 161.45 137.057 161.534 136.386 162.964L129.919 174.063L134.538 186.761Z" fill="#FFB1A5"/>
<path d="M134.118 170.531L129.667 148.332C129.415 146.819 127.904 145.809 126.476 146.146C125.216 146.398 124.376 147.491 124.544 148.837L126.476 165.318L134.118 170.531Z" fill="#FFB1A5"/>
<path d="M125.216 162.375L119.17 146.566C118.666 145.221 117.07 144.38 115.726 144.885C114.551 145.305 113.879 146.482 114.131 147.744L118.582 166.075L125.216 162.375Z" fill="#FFB1A5"/>
<path d="M118.75 167L111.107 151.443C110.435 150.014 108.672 149.341 107.244 149.93C105.9 150.518 105.313 152.032 105.9 153.462L112.031 168.177L118.75 167Z" fill="#FFB1A5"/>
<path d="M105.984 168.682L100.022 159.18C99.5179 158.086 100.022 156.825 101.03 156.321C102.037 155.816 103.381 156.236 104.053 157.161L111.947 168.093L105.984 168.682Z" fill="#FFB1A5"/>
<path d="M132.859 168.85C132.859 168.85 123.873 167.925 122.949 179.949" stroke="#282828" stroke-width="1.5317" stroke-miterlimit="10" stroke-linecap="round" stroke-linejoin="round"/>
<path d="M152.594 249.743C152.594 249.743 159.984 275.39 174.765 272.026C189.546 268.579 212.557 237.045 212.557 237.045L207.434 183.145L166.031 234.186L152.594 249.743Z" fill="#FFB1A5"/>
<path d="M178.796 218.294C178.796 218.294 192.737 239.4 204.746 246.884L212.557 237.045L182.407 213.753L178.796 218.294Z" fill="#F3978E"/>
<path d="M240.019 155.984C240.019 155.984 198.952 165.234 177.117 212.996C177.117 212.996 190.302 232.925 211.549 241.839L225.742 224.432L240.019 155.984Z" fill="#1F1F3E"/>
<path d="M240.019 155.816C223.978 164.057 213.901 174.988 213.901 174.988L217.092 314.659H318.121L317.785 175.745C317.785 175.745 305.02 163.3 291.247 157.161C279.49 151.948 251.356 150.014 240.019 155.816Z" fill="#1F1F3E"/>
<path d="M287.804 223.844C280.078 223.844 273.779 217.537 273.779 209.801V195.758H301.913V209.801C301.829 217.537 295.53 223.844 287.804 223.844Z" stroke="#282828" stroke-width="1.3968" stroke-miterlimit="10" stroke-linecap="round" stroke-linejoin="round"/>
<path d="M317.953 244.613L319.213 198.869" stroke="#282828" stroke-width="1.3968" stroke-miterlimit="10" stroke-linecap="round" stroke-linejoin="round"/>
<path d="M215.412 236.961L213.229 197.356" stroke="#282828" stroke-width="1.3968" stroke-miterlimit="10" stroke-linecap="round" stroke-linejoin="round"/>
<path d="M241.194 104.858L236.995 84.0044C236.743 82.3226 236.072 79.7159 236.911 77.1932C238.255 73.157 243.126 65.2527 251.524 68.8685L253.372 77.1091C253.372 77.1091 244.638 78.875 241.194 90.227V104.858Z" fill="#282828"/>
<path d="M250.852 73.157C250.684 75.9319 248.249 87.8725 239.767 92.2451C239.767 92.2451 232.376 76.2683 250.852 73.157Z" fill="#282828"/>
<path d="M280.666 152.032V116.631H248.081V152.032L238.339 156.489C238.339 156.489 240.607 171.204 264.709 171.541C288.812 171.877 291.247 157.245 291.247 157.245L280.666 152.032Z" fill="#FFB1A5"/>
<path d="M251.524 68.8685C251.524 68.8685 257.487 53.0598 275.963 61.4687C287.132 66.5981 290.239 73.4092 291.583 78.2023C292.003 79.8 292.171 82.3226 292.087 83.8362L287.636 104.858L270.168 75.7637L253.288 77.1091L251.524 68.8685Z" fill="#282828"/>
<path d="M287.636 104.858C287.636 104.858 289.82 101.327 294.355 103.092C298.89 104.774 296.874 115.874 290.071 117.219C290.071 117.219 287.636 117.724 285.704 116.042C285.704 116.042 287.384 107.886 287.636 104.858Z" fill="#F3978E"/>
<path d="M293.431 106.961C293.431 106.961 289.652 105.699 286.964 111.333" stroke="#282828" stroke-width="1.3968" stroke-miterlimit="10" stroke-linecap="round" stroke-linejoin="round"/>
<path d="M241.194 104.858C241.194 104.858 239.011 101.327 234.476 103.092C229.941 104.774 231.956 115.874 238.759 117.219C238.759 117.219 241.194 117.724 243.126 116.042C243.126 116.042 241.446 107.886 241.194 104.858Z" fill="#F3978E"/>
<path d="M235.316 106.961C235.316 106.961 239.095 105.699 241.782 111.333" stroke="#282828" stroke-width="1.3968" stroke-miterlimit="10" stroke-linecap="round" stroke-linejoin="round"/>
<path d="M288.056 94.3472C288.056 100.99 287.384 114.949 283.353 123.19C279.49 130.926 273.191 135.13 264.877 135.382C256.563 135.635 250.348 132.439 245.393 122.349C240.439 112.258 240.691 94.5154 240.691 94.5154C240.691 94.5154 240.69 70.8025 264.121 70.8025C288.812 70.7184 288.056 94.3472 288.056 94.3472Z" fill="#FFB1A5"/>
<path d="M248.333 127.31C248.333 127.31 251.104 141.185 263.113 142.782C276.97 144.632 280.666 127.646 280.666 127.646C280.666 127.646 274.535 135.382 264.793 135.382C254.043 135.382 248.333 127.31 248.333 127.31Z" fill="#282828"/>
<path d="M262.693 104.27V109.735C262.693 109.988 262.777 110.156 262.861 110.408C263.197 111.249 264.121 111.585 264.961 111.417L266.809 110.913" stroke="#282828" stroke-width="1.3968" stroke-miterlimit="10" stroke-linecap="round" stroke-linejoin="round"/>
<path d="M253.624 103.681C254.783 103.681 255.723 102.74 255.723 101.579C255.723 100.418 254.783 99.4767 253.624 99.4767C252.464 99.4767 251.524 100.418 251.524 101.579C251.524 102.74 252.464 103.681 253.624 103.681Z" fill="#282828"/>
<path d="M273.611 103.681C274.771 103.681 275.711 102.74 275.711 101.579C275.711 100.418 274.771 99.4767 273.611 99.4767C272.452 99.4767 271.512 100.418 271.512 101.579C271.512 102.74 272.452 103.681 273.611 103.681Z" fill="#282828"/>
<path d="M268.152 90.9837L282.513 94.6836C282.513 94.6836 281.841 90.6474 275.963 89.2179C270.168 87.7043 268.152 90.9837 268.152 90.9837Z" fill="#282828"/>
<path d="M259.25 90.9837L244.89 94.6836C244.89 94.6836 245.561 90.6474 251.44 89.2179C257.319 87.7043 259.25 90.9837 259.25 90.9837Z" fill="#282828"/>
<path d="M256.395 115.285C256.395 115.285 258.494 116.883 264.121 116.883C269.16 116.883 272.351 115.285 272.351 115.285" stroke="#282828" stroke-width="1.3968" stroke-miterlimit="10" stroke-linecap="round" stroke-linejoin="round"/>
<path d="M253.036 111.333C258.045 111.333 262.106 107.267 262.106 102.252C262.106 97.236 258.045 93.17 253.036 93.17C248.026 93.17 243.966 97.236 243.966 102.252C243.966 107.267 248.026 111.333 253.036 111.333Z" stroke="white" stroke-width="1.9514" stroke-miterlimit="10"/>
<path d="M275.375 111.333C280.384 111.333 284.445 107.267 284.445 102.252C284.445 97.236 280.384 93.17 275.375 93.17C270.366 93.17 266.305 97.236 266.305 102.252C266.305 107.267 270.366 111.333 275.375 111.333Z" stroke="white" stroke-width="1.9514" stroke-miterlimit="10"/>
<path d="M262.106 102.252C262.106 102.252 264.289 100.233 266.221 102.252" stroke="white" stroke-width="1.9514" stroke-miterlimit="10"/>
<path d="M243.966 102.252L240.942 102.168" stroke="white" stroke-width="1.9514" stroke-miterlimit="10"/>
<path d="M284.445 102.252L287.804 102.168" stroke="white" stroke-width="1.9514" stroke-miterlimit="10"/>
<path d="M248.333 73.7456C248.333 73.7456 252.7 86.1066 272.351 85.7702C285.704 85.518 288.896 95.1881 288.896 95.1881C288.896 95.1881 286.544 73.5774 285.956 73.7456C285.369 73.9137 265.633 68.448 265.633 68.448L248.333 73.7456Z" fill="#282828"/>
</g>
</svg>
