<svg width="420" height="251" viewBox="0 0 420 251" fill="none" xmlns="http://www.w3.org/2000/svg">
<path d="M416.708 25.9395H332.642C331.215 25.9395 330.123 24.8464 330.123 23.4169V2.89927C330.123 1.46977 331.215 0.376617 332.642 0.376617H416.708C418.135 0.376617 419.227 1.46977 419.227 2.89927V23.4169C419.227 24.8464 418.051 25.9395 416.708 25.9395Z" fill="#F75B19"/>
<path d="M342.216 9.45819H402.011" stroke="white" stroke-width="1.1803" stroke-miterlimit="10"/>
<path d="M342.216 15.5966H366.571" stroke="white" stroke-width="1.1803" stroke-miterlimit="10"/>
<path d="M339.781 23.0805V33.003L352.378 23.0805H339.781Z" fill="#FFB1A5"/>
<path d="M100.602 249.867H6.62678C3.93938 249.867 1.83984 247.681 1.83984 245.074V163.004C1.83984 160.313 4.02336 158.211 6.62678 158.211H100.602C103.289 158.211 105.389 160.397 105.389 163.004V245.074C105.389 247.765 103.289 249.867 100.602 249.867Z" fill="#EDEDED"/>
<path d="M100.602 249.867H6.62678C3.93938 249.867 1.83984 247.681 1.83984 245.074V163.004C1.83984 160.313 4.02336 158.211 6.62678 158.211H100.602C103.289 158.211 105.389 160.397 105.389 163.004V245.074C105.389 247.765 103.289 249.867 100.602 249.867Z" stroke="#DED8D5" stroke-width="1.9678" stroke-miterlimit="10"/>
<path d="M77.759 232.209H29.0498C25.9425 232.209 23.507 229.686 23.507 226.659V179.485C23.507 176.374 26.0265 173.935 29.0498 173.935H77.759C80.8663 173.935 83.3017 176.458 83.3017 179.485V226.659C83.3017 229.686 80.8663 232.209 77.759 232.209Z" fill="#F75B19"/>
<path d="M41.731 191.594C35.1804 198.153 35.1804 209 41.731 215.559C48.2815 222.118 59.1151 222.118 65.6657 215.559C72.2162 209 72.2162 198.153 65.6657 191.594C59.1151 185.035 48.3655 185.035 41.731 191.594ZM65.6657 194.032H60.2909C59.787 192.351 59.0311 190.669 58.1913 188.903C61.2146 189.912 63.8181 191.678 65.6657 194.032ZM47.5257 202.609C47.5257 200.423 47.7776 198.237 48.3655 196.051H59.1991C59.703 198.237 60.0389 200.423 60.0389 202.609H47.5257ZM59.8709 204.628C59.703 206.814 59.3671 209 58.6952 211.187H48.7854C48.1975 209 47.7776 206.814 47.6097 204.628H59.8709ZM53.7403 188.314C54.5801 188.314 55.336 188.399 56.0918 188.483C57.0996 190.333 57.9394 192.182 58.5272 194.032H48.8694C49.4573 192.182 50.2971 190.333 51.3049 188.483C52.1447 188.399 52.9005 188.314 53.7403 188.314ZM49.2893 188.987C48.4495 190.669 47.6937 192.351 47.1898 194.117H41.815C43.7465 191.678 46.35 189.912 49.2893 188.987ZM40.4713 196.051H46.6859C46.182 198.237 45.8461 200.423 45.8461 202.609H38.5397C38.6237 200.255 39.3795 197.985 40.4713 196.051ZM40.4713 211.187C39.3795 209.252 38.6237 206.982 38.5397 204.628H45.8461C45.93 206.814 46.266 209 46.8538 211.187H40.4713ZM41.815 213.205H47.4417C48.0296 214.886 48.7014 216.652 49.5412 218.334C46.4339 217.409 43.7465 215.643 41.815 213.205ZM53.7403 218.923C53.0685 218.923 52.3966 218.839 51.7248 218.754C50.801 216.905 49.9611 214.97 49.3733 213.121H58.1073C57.4355 214.97 56.6797 216.905 55.7559 218.754C55.084 218.839 54.4122 218.923 53.7403 218.923ZM57.9394 218.334C58.7792 216.652 59.451 214.886 60.0389 213.205H65.6657C63.7341 215.643 61.0467 217.409 57.9394 218.334ZM67.0094 211.187H60.6268C61.2146 209 61.5506 206.814 61.6346 204.628H69.0249C68.8569 206.982 68.1851 209.252 67.0094 211.187ZM69.0249 202.609H61.7185C61.7185 200.423 61.3826 198.237 60.8787 196.051H67.0933C68.1851 197.985 68.8569 200.255 69.0249 202.609Z" fill="white"/>
</svg>
